<?xml version="1.0" encoding="UTF-8" standalone="no"?>
<!-- Created with Inkscape (http://www.inkscape.org/) -->

<svg
   version="1.1"
   id="svg2"
   width="356.21957"
   height="337.18759"
   viewBox="0 0 356.21957 337.18759"
   sodipodi:docname="badram-filled.svg"
   inkscape:version="1.2.2 (b0a8486541, 2022-12-01)"
   inkscape:export-filename="badram_filled.png"
   inkscape:export-xdpi="300"
   inkscape:export-ydpi="300"
   xmlns:inkscape="http://www.inkscape.org/namespaces/inkscape"
   xmlns:sodipodi="http://sodipodi.sourceforge.net/DTD/sodipodi-0.dtd"
   xmlns="http://www.w3.org/2000/svg"
   xmlns:svg="http://www.w3.org/2000/svg">
  <defs
     id="defs6" />
  <sodipodi:namedview
     id="namedview4"
     pagecolor="#ffffff"
     bordercolor="#666666"
     borderopacity="1.0"
     inkscape:showpageshadow="2"
     inkscape:pageopacity="0"
     inkscape:pagecheckerboard="0"
     inkscape:deskcolor="#d1d1d1"
     showgrid="false"
     inkscape:zoom="1.2895557"
     inkscape:cx="105.46268"
     inkscape:cy="137.64431"
     inkscape:window-width="1920"
     inkscape:window-height="1009"
     inkscape:window-x="0"
     inkscape:window-y="0"
     inkscape:window-maximized="1"
     inkscape:current-layer="g8" />
  <g
     inkscape:groupmode="layer"
     inkscape:label="Image"
     id="g8"
     transform="translate(-86.663201,-71.333593)">
    <path
       style="fill:#000000"
       d="m 101.21905,406.06663 -2.454542,-2.45454 v -25.04546 c 0,-23.71212 -0.10647,-25.15192 -2,-27.04545 -1.33333,-1.33333 -3.33333,-2 -6,-2 h -3.999997 v -6 -6 h 4.076917 c 8.73166,0 13.328132,-10.32222 7.28672,-16.36364 -2.01791,-2.01791 -3.62918,-2.63636 -6.86856,-2.63636 h -4.232197 l -0.18209,-9 -0.1821,-9 4.800647,-0.004 c 9.123742,-0.007 15.290112,-6.29499 15.296922,-15.59838 0.007,-8.88042 -6.65154,-15.39762 -15.730662,-15.39762 H 86.764511 V 252.6704 c 0,-18.55267 0.76901,-22.39724 4.814897,-24.07146 1.81132,-0.74954 12.063272,-1.02433 31.503902,-0.84444 l 28.8188,0.26668 0.1812,45 c 0.1799,44.67696 0.19774,45.03589 2.48481,50 2.88873,6.26998 6.55982,10.22598 11.69639,12.60414 4.45375,2.06201 13.6358,2.73577 10,0.73377 -4.1053,-2.26052 -8.81859,-7.49347 -11.11269,-12.33791 l -2.36777,-5 -0.01,-55.75 c -0.009,-52.41921 -0.11432,-55.75088 -1.75977,-55.76473 -3.58784,-0.0302 -26.09827,-8.20484 -35.84056,-13.01548 -15.72635,-7.76551 -22.24265,-15.14747 -17.77796,-20.13967 4.99595,-5.58624 22.41229,-9.14119 53.72452,-10.96604 l 20.50181,-1.19482 0.67989,-5.08463 c 2.50713,-18.74981 10.58498,-45.15405 18.56933,-60.697932 11.09665,-21.602898 20.97028,-28.740098 32.31302,-23.357608 2.04089,0.96846 8.06878,6.45259 13.39533,12.18695 10.82732,11.656048 13.20272,13.283958 19.38383,13.283958 4.17334,0 4.6357,-0.34593 15.90415,-11.89907 6.38321,-6.544488 13.0715,-12.656988 14.86285,-13.583338 4.8228,-2.49396 11.44107,-2.17576 15.8828,0.76364 13.37039,8.8481 28.07335,42.48915 34.67804,79.34493 l 1.63544,9.12615 13.16887,0.68729 c 28.18226,1.47084 49.8468,4.53257 56.53129,7.98925 6.64669,3.43714 7.14549,7.93053 1.51989,13.69168 -5.26397,5.39079 -23.77772,14.46511 -39.57235,19.39597 l -12.69004,3.96165 -0.30996,55.51092 c -0.30527,54.67096 -0.34262,55.57146 -2.46838,59.51093 -4.08328,7.56719 -10.46813,11.91897 -19.54481,13.32137 l -5.29677,0.81838 5.93867,1.29019 c 10.47876,2.27654 19.52922,-0.43963 25.49333,-7.65092 5.8646,-7.09097 6.068,-9.05054 6.068,-58.46052 v -44.8185 h 29.88922 c 27.92717,0 30.04418,0.12536 32.25,1.90968 2.30881,1.86763 2.36759,2.32673 2.66992,20.85399 l 0.30913,18.94432 -5.5523,0.57305 c -6.506,0.67147 -10.6474,3.26344 -12.94268,8.1004 -5.07175,10.6879 2.0621,22.61856 13.52459,22.61856 h 4.85212 v 9 9 h -3.06574 c -6.12053,0 -9.85314,3.46566 -9.90246,9.19424 -0.0445,5.16981 3.25711,8.76657 8.71976,9.49926 l 4.24844,0.56984 v 5.86833 5.86833 h -3.84501 c -7.05717,0 -7.15499,0.38836 -7.15499,28.40566 v 24.74819 l -2.92308,2.92307 -2.92307,2.92308 H 264.79598 103.6736 Z m 319.03997,-19.30607 c 0.38467,-5.64334 0.38658,-12.95584 0.004,-16.25 -0.57726,-4.97596 -1.01667,-5.98938 -2.5967,-5.98938 -1.77852,0 -1.90181,0.9076 -1.90181,14 v 14 l -150.25,9.4e-4 -150.25,9.3e-4 v -13.75093 c 0,-13.49889 -0.0412,-13.7568 -2.25,-14.07049 l -2.25,-0.31955 -3e-5,16.31955 -2e-5,16.31955 H 265.16204 419.55963 Z M 133.26451,375.52118 v -10.5 l -3.25,-0.31336 -3.25,-0.31336 v 10.39669 c 0,5.71819 0.32066,10.71736 0.71258,11.10927 0.39191,0.39192 1.85441,0.57942 3.25,0.41667 2.53667,-0.29582 2.53742,-0.29903 2.53742,-10.79591 z m 14.28383,-0.25 0.28383,-10.75 h -2.91151 -2.91151 l -0.47792,9.25 c -0.53059,10.26929 0.25005,13.03061 3.55094,12.56068 2.06775,-0.29437 2.19724,-0.87516 2.46617,-11.06068 z m 14.72806,10.23077 c 0.78438,-1.26916 1.43146,-17.96483 0.7637,-19.70497 -0.26926,-0.70169 -1.79142,-1.2758 -3.38258,-1.2758 h -2.89301 v 10.33333 c 0,5.68334 0.3,10.63334 0.66667,11 1.01975,1.01976 4.13727,0.79291 4.84522,-0.35256 z m 16.27194,-10.23077 0.28383,-10.75 h -2.92684 c -3.71129,0 -4.14082,1.18065 -4.14082,11.38179 0,8.71489 0.94842,10.91388 4.48832,10.40653 1.85219,-0.26546 2.03418,-1.14058 2.29551,-11.03832 z m 15.01617,10.05 c 1.25292,-1.25292 1.7169,-16.28941 0.59301,-19.21821 -0.35994,-0.938 -1.78444,-1.58179 -3.5,-1.58179 h -2.89301 v 10.33333 c 0,5.68334 0.3,10.63334 0.66667,11 1.06133,1.06133 3.8259,0.7741 5.13333,-0.53333 z m 14.98383,-10.05 0.28383,-10.75 h -3.03383 -3.03383 v 10.33333 c 0,5.68334 0.31898,10.65232 0.70885,11.04219 0.38987,0.38986 1.62737,0.57736 2.75,0.41666 1.88942,-0.27046 2.06225,-1.0913 2.32498,-11.04218 z m 18,0 0.28383,-10.75 h -3.03383 -3.03383 l -0.11535,7.75 c -0.0634,4.2625 -0.18737,8.425 -0.2754,9.25 -0.3034,2.84341 1.45987,5.13079 3.70841,4.81068 2.06775,-0.29437 2.19724,-0.87516 2.46617,-11.06068 z m 17.00067,-0.0659 0.2845,-10.81593 -3.2845,0.31593 -3.2845,0.31593 -0.28984,9.42498 c -0.3489,11.34542 -0.0635,12.30581 3.53415,11.89199 l 2.75569,-0.317 0.2845,-10.81593 z m 14,0 0.2845,-10.81593 -3.2845,0.31593 -3.2845,0.31593 -0.28984,9.42498 c -0.3489,11.34542 -0.0635,12.30581 3.53415,11.89199 l 2.75569,-0.317 0.2845,-10.81593 z m 28,0 0.2845,-10.81593 -3.2845,0.31593 -3.2845,0.31593 -0.28886,9.35072 c -0.3104,10.04823 0.54137,12.47047 4.20135,11.94754 1.94895,-0.27846 2.10639,-1.01615 2.37201,-11.11419 z m 13.7155,0.3159 v -10.5 l -3.25,-0.31336 -3.25,-0.31336 v 10.39669 c 0,5.71819 0.32066,10.71736 0.71258,11.10927 0.39191,0.39192 1.85441,0.57942 3.25,0.41667 2.53667,-0.29582 2.53742,-0.29903 2.53742,-10.79591 z m 15.29827,9.25 c 0.47775,-0.9625 0.72974,-5.35 0.55999,-9.75 -0.16976,-4.4 -0.31982,-8.5625 -0.33346,-9.25 -0.0142,-0.71671 -1.30469,-1.25 -3.0248,-1.25 h -3 v 10.33333 c 0,5.68334 0.3,10.63334 0.66667,11 1.28235,1.28235 4.27048,0.65153 5.1316,-1.08333 z m 16.00173,0.55 c 1.25292,-1.25292 1.7169,-16.28941 0.59301,-19.21821 -0.35994,-0.938 -1.78444,-1.58179 -3.5,-1.58179 h -2.89301 v 10.33333 c 0,5.68334 0.3,10.63334 0.66667,11 1.06133,1.06133 3.8259,0.7741 5.13333,-0.53333 z m 16.98383,-10.05 0.28383,-10.75 h -2.9172 c -3.52613,0 -3.8344,0.89848 -3.95412,11.52463 -0.0952,8.44587 0.85218,10.75426 4.21615,10.27363 1.94797,-0.27832 2.10648,-1.01684 2.37134,-11.04826 z m 14,0 0.28383,-10.75 h -3.03383 -3.03383 v 10.33333 c 0,5.68334 0.31898,10.65232 0.70885,11.04219 0.38987,0.38986 1.62737,0.57736 2.75,0.41666 1.88942,-0.27046 2.06225,-1.0913 2.32498,-11.04218 z m 16,0 0.28383,-10.75 h -2.96035 -2.96036 l -0.34401,8.75 c -0.41867,10.64939 0.33653,13.51136 3.44867,13.06934 2.15117,-0.30553 2.26066,-0.78417 2.53222,-11.06934 z m 14,0 0.28383,-10.75 h -2.9172 c -3.52771,0 -4.11737,1.61294 -4.13681,11.31574 -0.016,7.98795 1.19372,10.93774 4.30401,10.49494 2.06775,-0.29437 2.19724,-0.87516 2.46617,-11.06068 z m 15.00067,-0.0659 0.2845,-10.81593 -3.2845,0.31593 -3.2845,0.31593 -0.28823,9.91736 c -0.30403,10.4611 0.22428,11.858 4.28823,11.33837 1.84065,-0.23535 2.02267,-1.1175 2.2845,-11.07166 z M 114.28443,357.54155 c -0.15389,-2.08877 -1.51992,-4.12789 -1.51992,-2.26882 0,0.59668 -0.27314,1.79668 -0.60699,2.66666 -0.3803,0.99105 -0.0693,1.58179 0.83288,1.58179 0.81738,0 1.37682,-0.85584 1.29403,-1.97963 z m 303.72483,-0.52037 c -0.26285,-1.375 -0.65044,-2.5 -0.86133,-2.5 -0.21088,0 -0.38342,1.125 -0.38342,2.5 0,1.375 0.3876,2.5 0.86133,2.5 0.47373,0 0.64627,-1.125 0.38342,-2.5 z m -285.94935,-21.75 c 2.6473,-1.97247 3.19041,-6.94477 1.03707,-9.49472 -2.98574,-3.53569 -6.79396,-3.8847 -9.78215,-0.89651 -2.9076,2.9076 -3.25403,6.19152 -0.99362,9.41872 1.76558,2.52072 6.96407,3.03984 9.7387,0.97251 z m 269.95936,-0.5 c 5.01505,-5.60884 -0.94172,-14.59461 -7.41403,-11.18404 -1.2874,0.6784 -2.67134,1.72858 -3.07542,2.33374 -1.24134,1.85909 -0.84646,6.03943 0.79139,8.37779 1.93161,2.75776 7.41583,3.02496 9.69806,0.47251 z m -89.46991,-27 c -0.46309,-17.13692 -1.71405,-21.05275 -9.32495,-29.18941 -7.12002,-7.61188 -9.29593,-8.06235 -38.88804,-8.05082 -24.15213,0.009 -25.25555,0.0953 -30.07914,2.34154 -5.78712,2.69493 -10.79452,7.97782 -13.78721,14.54576 -1.76097,3.86472 -2.1605,7.04871 -2.49117,19.85293 l -0.39384,15.25 h 47.68147 47.68146 z m -86.58485,5.55 c -0.66,-0.66 -1.2,-1.62615 -1.2,-2.14701 0,-1.96804 7.29476,-9.74143 11.39852,-12.14639 12.29897,-7.20767 37.23495,-8.60434 51.99022,-2.91198 5.96134,2.29979 12.39951,7.12828 15.25199,11.43867 2.31504,3.49826 2.42067,4.04817 1.04237,5.42647 -1.3783,1.3783 -2.26569,1.18294 -8.75672,-1.9278 -11.00956,-5.27619 -19.87197,-6.89341 -34.30905,-6.26074 -12.82619,0.56207 -20.90058,2.56363 -29.49328,7.31108 -5.14412,2.84211 -4.44363,2.69812 -5.92405,1.2177 z m 6.3685,-57.31655 c 4.48566,-1.37944 11.50903,-5.92467 10.39242,-6.72552 -7.68507,-5.5119 -12.18836,-7.70658 -13.916,-6.78197 -5.4271,2.9045 -11.04492,-0.17895 -11.04492,-6.06222 0,-2.1869 -1.33313,-3.52288 -7.75,-7.76651 l -7.75,-5.12527 -0.58953,4.15689 c -1.69914,11.98086 5.79219,25.07277 16.20501,28.32003 5.79334,1.80667 8.53745,1.80374 14.45302,-0.0154 z m 83.699,-1.69394 c 4.90636,-2.71391 10.24254,-9.36411 11.68689,-14.56477 1.1109,-4 1.42398,-14.51303 0.46089,-15.47613 -0.3216,-0.3216 -3.86671,1.5159 -7.87803,4.08333 -6.35246,4.06587 -7.37158,5.13005 -7.90012,8.24935 -1.01527,5.99195 -5.78264,8.72031 -10.87404,6.22322 -2.5422,-1.24683 -3.12911,-1.08192 -8.25,2.31816 -3.0322,2.01327 -5.51309,4.01614 -5.51309,4.45082 0,0.43467 1.39039,1.78036 3.08975,2.99042 7.41667,5.28113 17.50044,5.97224 25.17775,1.7256 z m -183.58195,-5.96382 c 1.27295,-1.19588 2.31445,-3.24133 2.31445,-4.54546 0,-2.93135 -4.18148,-7.28023 -7,-7.28023 -2.698,0 -7,4.302 -7,7 0,2.75927 4.3256,7 7.14009,7 1.22706,0 3.27251,-0.97844 4.54546,-2.17431 z m 269.31445,0.17431 c 4.12982,-4.12982 1.17851,-12 -4.5,-12 -1.375,0 -3.4,0.9 -4.5,2 -4.12982,4.12982 -1.17851,12 4.5,12 1.375,0 3.4,-0.9 4.5,-2 z m -94,-39.45452 c 5.775,-0.84777 14.1,-2.26685 18.5,-3.1535 8.24576,-1.66162 25.37964,-6.99288 26.80459,-8.34033 0.65106,-0.61565 -0.94491,-13.83525 -1.79029,-14.8292 -0.12983,-0.15265 -4.23616,1.05786 -9.12518,2.69002 -20.41629,6.81581 -45.35397,10.08753 -76.88912,10.08753 -34.04766,0 -63.48847,-4.38362 -85.07581,-12.66746 -0.82368,-0.31608 -1.63242,1.84902 -2.49627,6.6828 -1.51535,8.4794 -2.12593,7.79196 10.57208,11.90277 13.63392,4.4138 27.06053,6.7722 54,9.48518 9.22532,0.92905 55.44652,-0.38194 65.5,-1.85781 z M 255.02793,86.545528 c -8.08911,-5.411138 -8.45801,-6.167968 -2.56498,-5.262288 6.39503,0.98284 19.60069,0.93678 25.80156,-0.09 l 5,-0.82792 -6.32513,4.73193 c -4.90149,3.666878 -7.37732,4.831878 -11,5.176038 -4.18473,0.39755 -5.32874,0.007 -10.91145,-3.72779 z"
       id="path293"
       sodipodi:nodetypes="ccssscccssscccccscssscsssssccsssscssscssssscsssscssscssscssscssscccssscccssccccccscsscccsscccccsscccssssscccsssssscsssscssssssscsssscccssssscccssssccccsscccccccsscccscccsssscccsssssssscsssssscsssscssssscccssssscccsssscssssscccssssssssssssssssssssssssscssscccsssssssssssssssscssssssssssssssssssssssssssssssssssssssscssss" />
    <path
       id="rect436"
       style="fill:#ffffff;fill-opacity:1;stroke:none;stroke-width:2.66835;stroke-linejoin:round;stop-color:#000000"
       d="m 388.91515,364.52109 c -0.44096,0 -0.83567,0.0248 -1.18945,0.0879 -0.35377,0.0631 -0.66752,0.165 -0.94336,0.31641 -0.27583,0.15141 -0.51356,0.35212 -0.7207,0.61719 -0.20714,0.26506 -0.38355,0.59402 -0.53125,0.99804 -0.29541,0.80805 -0.48062,1.91988 -0.59375,3.43555 -0.11314,1.51567 -0.15334,3.43563 -0.1582,5.86133 -0.004,1.99698 0.0688,3.67934 0.22851,5.07226 0.15976,1.39293 0.40539,2.49565 0.75,3.33594 0.1723,0.42015 0.36933,0.77478 0.5918,1.06641 0.22247,0.29163 0.47082,0.51991 0.74609,0.68945 0.27527,0.16954 0.57749,0.2801 0.9082,0.33399 0.33072,0.0539 0.6913,0.0514 1.08008,-0.004 0.51694,-0.0736 0.91163,-0.16493 1.21875,-0.41992 0.15356,-0.1275 0.28516,-0.29599 0.39844,-0.52344 0.11328,-0.22745 0.20795,-0.51316 0.28906,-0.87695 0.16223,-0.72759 0.2693,-1.76448 0.35157,-3.25586 0.0823,-1.49139 0.13979,-3.438 0.20703,-5.98438 l 0.28515,-10.75 z" />
    <path
       id="path516"
       style="fill:#ffffff;fill-opacity:1;stroke:none;stroke-width:2.66835;stroke-linejoin:round;stop-color:#000000"
       d="m 371.91125,364.52109 -0.34375,8.75 c -0.10467,2.66235 -0.13673,4.83869 -0.0762,6.59766 0.0605,1.75897 0.21382,3.1 0.47656,4.0957 0.13137,0.49786 0.28966,0.90888 0.47851,1.24219 0.18885,0.33331 0.40726,0.58912 0.65821,0.77539 0.25095,0.18627 0.53584,0.30457 0.85351,0.36133 0.31768,0.0567 0.66958,0.0533 1.0586,-0.002 0.53779,-0.0764 0.94665,-0.16357 1.26367,-0.41211 0.15851,-0.12428 0.29393,-0.28992 0.41015,-0.51368 0.11623,-0.22375 0.21433,-0.50631 0.29688,-0.86718 0.16511,-0.72175 0.27145,-1.75596 0.35352,-3.25196 0.0821,-1.49599 0.13914,-3.4541 0.20703,-6.02539 l 0.28515,-10.75 h -2.96093 z" />
    <path
       id="path514"
       style="fill:#ffffff;fill-opacity:1;stroke:none;stroke-width:2.66835;stroke-linejoin:round;stop-color:#000000"
       d="m 355.76476,364.52109 v 10.33399 c 0,2.84166 0.0786,5.50446 0.20703,7.50586 0.0642,1.00069 0.14184,1.83584 0.22657,2.44531 0.0847,0.60947 0.17792,0.99238 0.27539,1.08984 0.19493,0.19493 0.60117,0.3405 1.09961,0.41602 0.49843,0.0755 1.08907,0.0823 1.65039,0.002 0.47235,-0.0676 0.83704,-0.17094 1.12304,-0.4414 0.28601,-0.27047 0.49233,-0.70974 0.64844,-1.45118 0.15612,-0.74143 0.26108,-1.7851 0.34375,-3.26562 0.0827,-1.48052 0.1433,-3.39705 0.20899,-5.88477 l 0.28515,-10.75 h -3.03515 z" />
    <path
       id="path512"
       style="fill:#ffffff;fill-opacity:1;stroke:none;stroke-width:2.66835;stroke-linejoin:round;stop-color:#000000"
       d="m 344.91515,364.52109 c -0.44076,0 -0.83161,0.0133 -1.17773,0.0586 -0.34612,0.0453 -0.64684,0.12291 -0.91016,0.24804 -0.26331,0.12514 -0.4893,0.29963 -0.68164,0.53907 -0.19234,0.23943 -0.35117,0.54341 -0.48437,0.93164 -0.2664,0.77644 -0.42651,1.88435 -0.52735,3.46289 -0.10083,1.57853 -0.14389,3.62862 -0.17382,6.28515 -0.0238,2.11147 0.0185,3.83778 0.14648,5.23438 0.12799,1.3966 0.3433,2.46362 0.66602,3.25 0.16136,0.39319 0.34831,0.71631 0.5664,0.97656 0.2181,0.26025 0.4659,0.45726 0.7461,0.59766 0.28019,0.14039 0.59374,0.22419 0.9414,0.25781 0.34766,0.0336 0.7299,0.0171 1.15039,-0.043 0.48699,-0.0696 0.86137,-0.16848 1.1543,-0.43359 0.14647,-0.13256 0.27375,-0.30587 0.38281,-0.53907 0.10906,-0.23319 0.20024,-0.52619 0.2793,-0.89453 0.15811,-0.73667 0.26511,-1.77746 0.34766,-3.26172 0.0825,-1.48425 0.14081,-3.41206 0.20703,-5.91992 l 0.28515,-10.75 z" />
    <path
       id="path510"
       style="fill:#ffffff;fill-opacity:1;stroke:none;stroke-width:2.66835;stroke-linejoin:round;stop-color:#000000"
       d="m 324.76476,364.52109 v 10.33399 c 0,2.84166 0.0745,5.50039 0.19532,7.49414 0.12083,1.99375 0.28736,3.32253 0.4707,3.50586 0.26533,0.26533 0.63755,0.44498 1.06641,0.54687 0.42885,0.1019 0.91458,0.12551 1.4082,0.0742 0.49362,-0.0513 0.99546,-0.17689 1.45508,-0.37109 0.45962,-0.1942 0.87626,-0.45635 1.20312,-0.78321 0.15662,-0.15661 0.30124,-0.52962 0.43164,-1.0664 0.1304,-0.53678 0.24659,-1.23888 0.34766,-2.05469 0.20213,-1.63162 0.34409,-3.71846 0.41015,-5.85937 0.0661,-2.14092 0.0579,-4.33468 -0.0371,-6.17579 -0.0475,-0.92055 -0.11656,-1.75337 -0.20899,-2.44726 -0.0924,-0.6939 -0.20912,-1.24914 -0.34961,-1.61524 -0.09,-0.2345 -0.24606,-0.45031 -0.45703,-0.64257 -0.21097,-0.19227 -0.47737,-0.36091 -0.78516,-0.5 -0.61556,-0.2782 -1.40003,-0.43946 -2.25781,-0.43946 z" />
    <path
       id="path508"
       style="fill:#ffffff;fill-opacity:1;stroke:none;stroke-width:2.66835;stroke-linejoin:round;stop-color:#000000"
       d="m 308.76476,364.52109 v 10.33399 c 0,2.84166 0.0745,5.50039 0.19532,7.49414 0.12083,1.99375 0.28736,3.32253 0.4707,3.50586 0.32059,0.32058 0.74873,0.52115 1.22266,0.61523 0.47392,0.0941 0.99447,0.0817 1.50195,-0.0254 0.50748,-0.10713 1.00061,-0.30873 1.42187,-0.5918 0.42127,-0.28306 0.77105,-0.64831 0.98633,-1.08203 0.11944,-0.24062 0.22435,-0.69511 0.3125,-1.31054 0.0882,-0.61543 0.15824,-1.3918 0.20899,-2.27539 0.10149,-1.76719 0.12198,-3.96407 0.0371,-6.16407 -0.16976,-4.39999 -0.3184,-8.5625 -0.33204,-9.25 -0.004,-0.17917 -0.0884,-0.34726 -0.23828,-0.49804 -0.14985,-0.15079 -0.36506,-0.28503 -0.63476,-0.39649 -0.53941,-0.22291 -1.29229,-0.35547 -2.15235,-0.35547 z" />
    <path
       id="path506"
       style="fill:#ffffff;fill-opacity:1;stroke:none;stroke-width:2.66835;stroke-linejoin:round;stop-color:#000000"
       d="m 220.76476,364.52109 -0.11523,7.75 c -0.0634,4.2625 -0.18736,8.425 -0.27539,9.25 -0.0759,0.71085 -0.023,1.3868 0.13476,1.9961 0.15778,0.60929 0.41974,1.15207 0.76172,1.5957 0.34198,0.44363 0.76347,0.7881 1.24024,1.00195 0.47676,0.21386 1.01013,0.29683 1.57226,0.2168 0.51694,-0.0736 0.91163,-0.16493 1.21875,-0.41992 0.15356,-0.1275 0.28516,-0.29599 0.39844,-0.52344 0.11328,-0.22745 0.20795,-0.51316 0.28906,-0.87695 0.16223,-0.72759 0.2693,-1.76448 0.35157,-3.25586 0.0823,-1.49139 0.13979,-3.438 0.20703,-5.98438 l 0.28515,-10.75 h -3.03515 z" />
    <path
       id="path504"
       style="fill:#ffffff;fill-opacity:1;stroke:none;stroke-width:2.66835;stroke-linejoin:round;stop-color:#000000"
       d="m 202.76476,364.52109 v 10.33399 c 0,2.84166 0.0786,5.50446 0.20703,7.50586 0.0642,1.00069 0.14184,1.83584 0.22657,2.44531 0.0847,0.60947 0.17792,0.99238 0.27539,1.08984 0.19493,0.19493 0.60117,0.3405 1.09961,0.41602 0.49843,0.0755 1.08907,0.0823 1.65039,0.002 0.47235,-0.0676 0.83704,-0.17094 1.12304,-0.4414 0.28601,-0.27047 0.49233,-0.70974 0.64844,-1.45118 0.15612,-0.74143 0.26108,-1.7851 0.34375,-3.26562 0.0827,-1.48052 0.1433,-3.39705 0.20899,-5.88477 l 0.28515,-10.75 h -3.03515 z" />
    <path
       id="path502"
       style="fill:#ffffff;fill-opacity:1;stroke:none;stroke-width:2.66835;stroke-linejoin:round;stop-color:#000000"
       d="m 187.76476,364.52109 v 10.33399 c 0,2.84166 0.0745,5.50039 0.19532,7.49414 0.12083,1.99375 0.28736,3.32253 0.4707,3.50586 0.26533,0.26533 0.63755,0.44498 1.06641,0.54687 0.42885,0.1019 0.91458,0.12551 1.4082,0.0742 0.49362,-0.0513 0.99546,-0.17689 1.45508,-0.37109 0.45962,-0.1942 0.87626,-0.45635 1.20312,-0.78321 0.15662,-0.15661 0.30124,-0.52962 0.43164,-1.0664 0.1304,-0.53678 0.24659,-1.23888 0.34766,-2.05469 0.20213,-1.63162 0.34409,-3.71846 0.41015,-5.85937 0.0661,-2.14092 0.0579,-4.33468 -0.0371,-6.17579 -0.0475,-0.92055 -0.11656,-1.75337 -0.20899,-2.44726 -0.0924,-0.6939 -0.20912,-1.24914 -0.34961,-1.61524 -0.09,-0.2345 -0.24606,-0.45031 -0.45703,-0.64257 -0.21097,-0.19227 -0.47737,-0.36091 -0.78516,-0.5 -0.61556,-0.2782 -1.40003,-0.43946 -2.25781,-0.43946 z" />
    <path
       id="path500"
       style="fill:#ffffff;fill-opacity:1;stroke:none;stroke-width:2.66835;stroke-linejoin:round;stop-color:#000000"
       d="m 175.90539,364.52109 c -0.46391,0 -0.87722,0.0181 -1.24414,0.0703 -0.36693,0.0522 -0.68767,0.13839 -0.96875,0.27343 -0.28109,0.13504 -0.52213,0.31987 -0.72852,0.56836 -0.20638,0.2485 -0.37866,0.56055 -0.52148,0.95313 -0.28565,0.78515 -0.45448,1.89032 -0.55274,3.43554 -0.0983,1.54522 -0.125,3.53175 -0.125,6.08204 0,2.17872 0.0589,3.94928 0.20313,5.37304 0.0721,0.71188 0.16541,1.33735 0.2832,1.88281 0.1178,0.54546 0.25979,1.01038 0.42969,1.4043 0.1699,0.39392 0.36728,0.71539 0.5957,0.97266 0.22842,0.25726 0.4879,0.45045 0.78125,0.58594 0.29336,0.13549 0.62162,0.21359 0.98633,0.24218 0.36471,0.0286 0.7665,0.009 1.20898,-0.0547 0.46305,-0.0664 0.82191,-0.17129 1.10352,-0.44532 0.28161,-0.27402 0.48578,-0.7183 0.64063,-1.46289 0.15484,-0.74459 0.25904,-1.78952 0.34179,-3.26758 0.0828,-1.47805 0.14365,-3.38884 0.20899,-5.86328 l 0.28515,-10.75 z" />
    <path
       id="path498"
       style="fill:#ffffff;fill-opacity:1;stroke:none;stroke-width:2.66835;stroke-linejoin:round;stop-color:#000000"
       d="m 156.76476,364.52109 v 10.33399 c 0,2.84166 0.0745,5.50039 0.19532,7.49414 0.12083,1.99375 0.28736,3.32253 0.4707,3.50586 0.25494,0.25494 0.64116,0.43092 1.08789,0.53515 0.44673,0.10424 0.9535,0.13583 1.45117,0.0996 0.49767,-0.0362 0.98678,-0.14022 1.39453,-0.30664 0.40776,-0.16641 0.73512,-0.39527 0.91211,-0.68164 0.1961,-0.31729 0.38439,-1.59826 0.54492,-3.36914 0.16054,-1.77088 0.29269,-4.0316 0.38086,-6.30664 0.0882,-2.27504 0.13232,-4.56478 0.11133,-6.39453 -0.021,-1.82976 -0.1065,-3.19973 -0.27344,-3.63477 -0.0673,-0.17542 -0.21254,-0.34164 -0.41796,-0.49414 -0.20543,-0.15249 -0.4708,-0.29063 -0.77735,-0.40625 -0.61309,-0.23124 -1.39192,-0.375 -2.1875,-0.375 z" />
    <path
       id="path496"
       style="fill:#ffffff;fill-opacity:1;stroke:none;stroke-width:2.66835;stroke-linejoin:round;stop-color:#000000"
       d="m 142.0089,364.52109 -0.47851,9.25 c -0.13265,2.56732 -0.18296,4.66568 -0.13281,6.36133 0.0501,1.69565 0.20193,2.98964 0.47265,3.94727 0.13536,0.47881 0.30046,0.87204 0.49805,1.1914 0.19759,0.31937 0.42686,0.56361 0.69141,0.74024 0.26454,0.17662 0.56417,0.2873 0.90039,0.33789 0.33621,0.0506 0.71043,0.0412 1.12304,-0.0176 0.51694,-0.0736 0.91163,-0.16493 1.21875,-0.41992 0.15356,-0.1275 0.28516,-0.29599 0.39844,-0.52344 0.11328,-0.22745 0.20795,-0.51316 0.28906,-0.87695 0.16223,-0.72759 0.2693,-1.76448 0.35157,-3.25586 0.0823,-1.49139 0.13979,-3.438 0.20703,-5.98438 l 0.28515,-10.75 h -2.91211 z" />
    <path
       id="path494"
       style="fill:#ffffff;fill-opacity:1;stroke:none;stroke-width:2.66835;stroke-linejoin:round;stop-color:#000000"
       d="m 292.76476,364.39414 v 10.39648 c 0,2.8591 0.0798,5.53919 0.20899,7.55274 0.0646,1.00678 0.14138,1.84781 0.22656,2.46094 0.0852,0.61313 0.17936,0.99772 0.27734,1.0957 0.19596,0.19596 0.65899,0.34049 1.24805,0.41601 0.58906,0.0755 1.30416,0.0833 2.00195,0.002 0.63417,-0.074 1.11001,-0.13003 1.4668,-0.33594 0.1784,-0.10296 0.32727,-0.24421 0.45117,-0.44336 0.12391,-0.19915 0.22147,-0.45745 0.30078,-0.79492 0.15864,-0.67495 0.2396,-1.66739 0.2793,-3.14844 0.0397,-1.48104 0.0391,-3.45 0.0391,-6.07422 v -10.5 l -3.25,-0.3125 z" />
    <path
       id="path492"
       style="fill:#ffffff;fill-opacity:1;stroke:none;stroke-width:2.66835;stroke-linejoin:round;stop-color:#000000"
       d="m 126.76476,364.39414 v 10.39648 c 0,2.8591 0.0798,5.53919 0.20899,7.55274 0.0646,1.00678 0.14138,1.84781 0.22656,2.46094 0.0852,0.61313 0.17936,0.99772 0.27734,1.0957 0.19596,0.19596 0.65899,0.34049 1.24805,0.41601 0.58906,0.0755 1.30416,0.0833 2.00195,0.002 0.63417,-0.074 1.11001,-0.13003 1.4668,-0.33594 0.1784,-0.10296 0.32727,-0.24421 0.45117,-0.44336 0.12391,-0.19915 0.22147,-0.45745 0.30078,-0.79492 0.15864,-0.67495 0.2396,-1.66739 0.2793,-3.14844 0.0397,-1.48104 0.0391,-3.45 0.0391,-6.07422 v -10.5 l -3.25,-0.3125 z" />
    <path
       id="path490"
       style="fill:#ffffff;fill-opacity:1;stroke:none;stroke-width:2.66835;stroke-linejoin:round;stop-color:#000000"
       d="m 406.83312,364.39023 -3.2832,0.31446 -3.28516,0.3164 -0.28906,9.91797 c -0.076,2.61527 -0.0996,4.66388 -0.0293,6.25781 0.0351,0.79697 0.0941,1.47899 0.18164,2.0625 0.0876,0.58352 0.203,1.06882 0.35352,1.4668 0.15052,0.39798 0.3365,0.70886 0.56055,0.94922 0.22404,0.24036 0.48678,0.40886 0.79492,0.51953 0.30813,0.11067 0.66167,0.16493 1.06445,0.17383 0.40279,0.009 0.85529,-0.0268 1.36328,-0.0918 0.46017,-0.0588 0.81571,-0.15835 1.09571,-0.42969 0.27999,-0.27133 0.48451,-0.71382 0.63867,-1.46093 0.15416,-0.74712 0.25915,-1.79898 0.3418,-3.28516 0.0826,-1.48618 0.14352,-3.40795 0.20898,-5.89648 z" />
    <path
       id="path488"
       style="fill:#ffffff;fill-opacity:1;stroke:none;stroke-width:2.66835;stroke-linejoin:round;stop-color:#000000"
       d="m 285.83312,364.39023 -3.2832,0.31446 -3.28516,0.3164 -0.28906,9.35157 c -0.0776,2.51205 -0.0817,4.54774 0.0117,6.17968 0.0467,0.81598 0.11771,1.53093 0.2168,2.1543 0.0991,0.62337 0.2249,1.15446 0.38281,1.60352 0.15791,0.44905 0.34715,0.81439 0.57031,1.10742 0.22316,0.29302 0.48055,0.51269 0.77539,0.66797 0.29485,0.15527 0.62705,0.24739 1,0.2832 0.37296,0.0358 0.78665,0.0165 1.24414,-0.0488 0.48724,-0.0696 0.86327,-0.16749 1.15625,-0.43359 0.14649,-0.13305 0.2718,-0.30865 0.38086,-0.54297 0.10906,-0.23433 0.20025,-0.52807 0.2793,-0.89844 0.15809,-0.74074 0.26509,-1.7877 0.34766,-3.28125 0.0826,-1.49354 0.14257,-3.43448 0.20898,-5.95898 z" />
    <path
       id="path486"
       style="fill:#ffffff;fill-opacity:1;stroke:none;stroke-width:2.66835;stroke-linejoin:round;stop-color:#000000"
       d="m 257.83312,364.39023 -3.2832,0.31446 -3.28516,0.3164 -0.29101,9.42578 c -0.0872,2.83636 -0.13352,5.02216 -0.0996,6.70118 0.0339,1.67901 0.148,2.85102 0.38672,3.65429 0.11936,0.40164 0.27077,0.71177 0.45703,0.94727 0.18625,0.2355 0.40826,0.39544 0.67187,0.5 0.26362,0.10456 0.5685,0.15329 0.91993,0.16211 0.35142,0.009 0.74951,-0.0225 1.19921,-0.0742 l 2.75586,-0.31641 0.28516,-10.8164 z" />
    <path
       id="path484"
       style="fill:#ffffff;fill-opacity:1;stroke:none;stroke-width:2.66835;stroke-linejoin:round;stop-color:#000000"
       d="m 243.83312,364.39023 -3.2832,0.31446 -3.28516,0.3164 -0.29101,9.42578 c -0.0872,2.83636 -0.13352,5.02216 -0.0996,6.70118 0.0339,1.67901 0.148,2.85102 0.38672,3.65429 0.11936,0.40164 0.27077,0.71177 0.45703,0.94727 0.18625,0.2355 0.40826,0.39544 0.67187,0.5 0.26362,0.10456 0.5685,0.15329 0.91993,0.16211 0.35142,0.009 0.74951,-0.0225 1.19921,-0.0742 l 2.75586,-0.31641 0.28516,-10.8164 z" />
    <path
       id="path482"
       style="fill:#ffffff;fill-opacity:1;stroke:none;stroke-width:2.66835;stroke-linejoin:round;stop-color:#000000"
       d="m 110.76476,364.38242 v 16.31836 16.32031 h 154.39649 154.39844 l 0.69921,-10.25976 c 0.19234,-2.82167 0.28833,-6.06055 0.28907,-9.00586 7.4e-4,-2.94531 -0.0939,-5.59706 -0.28516,-7.24414 -0.14431,-1.24399 -0.28067,-2.24041 -0.42773,-3.03516 -0.14706,-0.79475 -0.30439,-1.3885 -0.49414,-1.82617 -0.18976,-0.43768 -0.41119,-0.71982 -0.6836,-0.89258 -0.2724,-0.17276 -0.59523,-0.23633 -0.99023,-0.23633 -0.22232,0 -0.42017,0.0141 -0.59375,0.0645 -0.17358,0.0504 -0.32425,0.13642 -0.45508,0.28125 -0.13083,0.14482 -0.24187,0.34949 -0.33594,0.63281 -0.0941,0.28332 -0.17109,0.64546 -0.23437,1.11133 -0.12657,0.93172 -0.19698,2.27301 -0.23633,4.19922 -0.0394,1.9262 -0.0469,4.43784 -0.0469,7.71093 v 14 l -150.25,0.002 h -150.25 v -13.75 c 0,-3.37472 -0.003,-5.92225 -0.041,-7.84961 -0.0384,-1.92736 -0.11266,-3.23534 -0.25586,-4.13086 -0.0716,-0.44776 -0.16122,-0.79284 -0.27149,-1.06055 -0.11026,-0.26771 -0.2412,-0.45805 -0.39843,-0.59766 -0.31448,-0.27921 -0.73101,-0.35517 -1.28321,-0.43359 z" />
    <path
       id="path480"
       style="fill:#ffffff;fill-opacity:1;stroke:none;stroke-width:2.66835;stroke-linejoin:round;stop-color:#000000"
       d="m 112.97961,354.54844 c -0.13047,0.0376 -0.21485,0.25984 -0.21485,0.72461 0,0.59668 -0.27357,1.79603 -0.60742,2.66601 -0.19015,0.49553 -0.20744,0.89055 -0.0645,1.16211 0.0715,0.13578 0.1839,0.24163 0.33398,0.3125 0.15009,0.0709 0.33891,0.10742 0.56446,0.10742 0.20434,0 0.39249,-0.0526 0.55859,-0.15039 0.1661,-0.0978 0.30994,-0.24075 0.42578,-0.41797 0.23168,-0.35443 0.34999,-0.85021 0.30859,-1.41211 -0.0385,-0.52219 -0.15302,-1.04024 -0.30273,-1.49609 -0.14971,-0.45585 -0.33525,-0.84794 -0.51562,-1.11719 -0.18038,-0.26924 -0.35586,-0.41653 -0.48633,-0.3789 z" />
    <path
       id="path478"
       style="fill:#ffffff;fill-opacity:1;stroke:none;stroke-width:2.66835;stroke-linejoin:round;stop-color:#000000"
       d="m 417.14758,354.52109 c -0.10544,0 -0.20004,0.28125 -0.26954,0.73438 -0.0695,0.45312 -0.11328,1.07812 -0.11328,1.76562 0,0.6875 0.0958,1.3125 0.25196,1.76563 0.078,0.22656 0.17243,0.41015 0.27539,0.53711 0.10295,0.12695 0.21555,0.19726 0.33398,0.19726 0.11843,0 0.21819,-0.0703 0.29688,-0.19726 0.0787,-0.12696 0.13517,-0.31055 0.16992,-0.53711 0.0695,-0.45313 0.0474,-1.07813 -0.084,-1.76563 -0.13142,-0.6875 -0.2931,-1.3125 -0.44921,-1.76562 -0.15612,-0.45313 -0.30667,-0.73438 -0.41211,-0.73438 z" />
    <path
       id="path476"
       style="fill:#ffffff;fill-opacity:1;stroke:none;stroke-width:2.66835;stroke-linejoin:round;stop-color:#000000"
       d="m 128.20617,322.88242 c -0.4247,-0.0389 -0.848,-0.0282 -1.26953,0.0352 -0.42153,0.0633 -0.84001,0.17762 -1.25195,0.34375 -0.41195,0.16612 -0.81891,0.38476 -1.21485,0.65429 -0.39594,0.26953 -0.78077,0.59132 -1.1543,0.96485 -0.72689,0.7269 -1.29513,1.47697 -1.70117,2.24414 -0.40604,0.76717 -0.65062,1.55179 -0.73437,2.3457 -0.0838,0.79392 -0.006,1.59718 0.23437,2.4043 0.23996,0.80712 0.64193,1.61703 1.20703,2.42383 0.2207,0.31509 0.49401,0.59821 0.81055,0.84961 0.31654,0.25139 0.67691,0.47083 1.06641,0.65625 0.77899,0.37084 1.67971,0.60794 2.61328,0.70117 0.93357,0.0932 1.89956,0.0425 2.80469,-0.16016 0.45256,-0.10133 0.88964,-0.24119 1.30078,-0.41992 0.41113,-0.17873 0.79575,-0.39588 1.14258,-0.6543 0.33091,-0.24656 0.62857,-0.53942 0.89257,-0.86914 0.264,-0.32971 0.49468,-0.6962 0.68946,-1.08789 0.38954,-0.78337 0.63756,-1.67003 0.73632,-2.57422 0.0988,-0.90418 0.0484,-1.82608 -0.1621,-2.68164 -0.10527,-0.42778 -0.25144,-0.8388 -0.4375,-1.22265 -0.18606,-0.38386 -0.41248,-0.73985 -0.68165,-1.0586 -0.37321,-0.44196 -0.75858,-0.8337 -1.15429,-1.17578 -0.39571,-0.34208 -0.8011,-0.63533 -1.21289,-0.87695 -0.41179,-0.24162 -0.8305,-0.4317 -1.25196,-0.57227 -0.42145,-0.14056 -0.84678,-0.23061 -1.27148,-0.26953 z" />
    <path
       id="path474"
       style="fill:#ffffff;fill-opacity:1;stroke:none;stroke-width:2.66835;stroke-linejoin:round;stop-color:#000000"
       d="m 396.98742,322.85898 c -0.38625,0.0349 -0.7798,0.11031 -1.17773,0.23047 -0.39794,0.12017 -0.80056,0.28489 -1.20508,0.49805 -0.6437,0.3392 -1.31172,0.77037 -1.86914,1.19336 -0.55742,0.42299 -1.00304,0.83804 -1.20508,1.14062 -0.31034,0.46478 -0.51891,1.0738 -0.63086,1.76368 -0.11195,0.68987 -0.12688,1.45925 -0.0527,2.24414 0.0741,0.78488 0.23643,1.58615 0.48438,2.33593 0.24795,0.74979 0.58077,1.44862 0.99023,2.03321 0.24146,0.34472 0.53768,0.65172 0.87696,0.91797 0.33927,0.26624 0.72209,0.49124 1.13281,0.67773 0.41072,0.18649 0.84891,0.33401 1.30469,0.43945 0.45577,0.10545 0.9279,0.17025 1.40234,0.19336 0.47445,0.0231 0.95124,0.004 1.41797,-0.0566 0.46673,-0.0605 0.92479,-0.16319 1.35742,-0.30859 0.43263,-0.1454 0.84074,-0.33287 1.21289,-0.56446 0.37215,-0.23158 0.70691,-0.50711 0.99219,-0.82617 0.62688,-0.7011 1.08228,-1.45464 1.38672,-2.23047 0.30443,-0.77582 0.45764,-1.57434 0.48047,-2.36328 0.0228,-0.78893 -0.0848,-1.56816 -0.30274,-2.30859 -0.21792,-0.74043 -0.54505,-1.44196 -0.96289,-2.07227 -0.41783,-0.6303 -0.92505,-1.18986 -1.50195,-1.64843 -0.57691,-0.45857 -1.22284,-0.8158 -1.91797,-1.04102 -0.69513,-0.22522 -1.44039,-0.31779 -2.21289,-0.24805 z" />
    <path
       id="path470"
       style="fill:#ffffff;fill-opacity:1;stroke:none;stroke-width:2.66835;stroke-linejoin:round;stop-color:#000000"
       d="m 264.33703,270.53086 c -6.03803,0.002 -10.63573,0.0102 -14.21094,0.0547 -3.5752,0.0444 -6.12922,0.1256 -8.07812,0.27734 -1.94891,0.15174 -3.29399,0.37316 -4.45313,0.69727 -1.15914,0.3241 -2.13199,0.75094 -3.33789,1.3125 -1.44678,0.67373 -2.84381,1.50946 -4.17383,2.48632 -1.33001,0.97687 -2.59291,2.0947 -3.76758,3.33399 -1.17466,1.23929 -2.26147,2.59955 -3.24218,4.06054 -0.98072,1.461 -1.85535,3.02208 -2.60352,4.66407 -0.44024,0.96618 -0.79568,1.8896 -1.08594,2.93164 -0.29025,1.04204 -0.51464,2.20277 -0.69531,3.64258 -0.18067,1.4398 -0.31626,3.15888 -0.42773,5.31836 -0.11147,2.15947 -0.19859,4.75988 -0.28125,7.96093 l -0.39453,15.25 h 47.68164 47.68164 l -0.39844,-14.75 c -0.11577,-4.28422 -0.28071,-7.74236 -0.58203,-10.64648 -0.15066,-1.45206 -0.33671,-2.76538 -0.56641,-3.97461 -0.22969,-1.20923 -0.50349,-2.31312 -0.83398,-3.34766 -0.3305,-1.03453 -0.71686,-1.99976 -1.16992,-2.92773 -0.45307,-0.92798 -0.97292,-1.81944 -1.57032,-2.70899 -0.59739,-0.88954 -1.27166,-1.77801 -2.03515,-2.69726 -0.7635,-0.91925 -1.617,-1.86964 -2.56836,-2.88672 -0.89,-0.95148 -1.7013,-1.79048 -2.5,-2.53125 -0.7987,-0.74078 -1.58416,-1.38322 -2.41797,-1.93945 -0.83381,-0.55624 -1.71757,-1.02597 -2.71289,-1.42383 -0.99533,-0.39787 -2.10152,-0.72457 -3.38477,-0.99024 -1.28324,-0.26566 -2.74187,-0.47122 -4.43945,-0.63086 -1.69758,-0.15963 -3.63473,-0.27178 -5.87305,-0.35156 -4.47662,-0.15954 -10.16057,-0.18647 -17.55859,-0.18359 z m 4.125,22.10351 c 2.39775,0.0694 4.76983,0.24302 7.07226,0.52149 2.30244,0.27846 4.53436,0.66179 6.65235,1.1543 2.11799,0.4925 4.12239,1.09314 5.9668,1.80468 1.49033,0.57495 3.00963,1.30892 4.49609,2.15235 1.48646,0.84342 2.93929,1.79775 4.29492,2.81445 1.35563,1.0167 2.61504,2.09665 3.71289,3.19141 1.09785,1.09475 2.03493,2.20365 2.74805,3.28125 0.57876,0.87456 1.02006,1.56582 1.33398,2.13086 0.31392,0.56503 0.50052,1.00343 0.57227,1.37695 0.0718,0.37352 0.0286,0.68043 -0.11914,0.98047 -0.14775,0.30003 -0.39957,0.59292 -0.74414,0.9375 -0.34458,0.34457 -0.65867,0.59184 -1.03711,0.71875 -0.37844,0.1269 -0.82107,0.13465 -1.42383,0.002 -0.60276,-0.1327 -1.36528,-0.40562 -2.38281,-0.83984 -1.01753,-0.43423 -2.29131,-1.03091 -3.91407,-1.8086 -1.37619,-0.65952 -2.71879,-1.26066 -4.04296,-1.80859 -1.32418,-0.54793 -2.62932,-1.04253 -3.93164,-1.48438 -1.30233,-0.44184 -2.60148,-0.83061 -3.91211,-1.17187 -1.31064,-0.34126 -2.63332,-0.63467 -3.98243,-0.88086 -1.3491,-0.24619 -2.72483,-0.44495 -4.14257,-0.60156 -1.41775,-0.15661 -2.87799,-0.27121 -4.39454,-0.34375 -3.03308,-0.14509 -6.29307,-0.12692 -9.90234,0.0312 -3.20654,0.14051 -6.11563,0.37007 -8.81055,0.71093 -2.69491,0.34087 -5.17546,0.79297 -7.52343,1.375 -2.34798,0.58204 -4.56474,1.29417 -6.73047,2.15821 -2.16573,0.86404 -4.28152,1.87954 -6.42969,3.0664 -1.28603,0.71053 -2.20587,1.23462 -2.88672,1.59766 -0.68085,0.36304 -1.12274,0.56571 -1.44922,0.63281 -0.32647,0.0671 -0.53687,-4.6e-4 -0.75976,-0.17773 -0.22289,-0.17728 -0.45802,-0.46388 -0.82813,-0.83399 -0.33,-0.33 -0.63015,-0.7378 -0.84765,-1.12695 -0.2175,-0.38914 -0.35157,-0.76105 -0.35157,-1.02148 0,-0.24601 0.11283,-0.58269 0.32032,-0.98828 0.20748,-0.4056 0.50881,-0.87885 0.88281,-1.4004 0.748,-1.04308 1.7887,-2.27454 2.95703,-3.51953 1.16833,-1.24498 2.46559,-2.50386 3.72656,-3.60156 1.26098,-1.0977 2.48578,-2.03548 3.51172,-2.63672 1.53737,-0.90096 3.27245,-1.71086 5.16016,-2.42773 1.88771,-0.71687 3.92725,-1.3394 6.07617,-1.86719 2.14892,-0.52779 4.40752,-0.96121 6.72851,-1.29492 2.321,-0.33371 4.70544,-0.56848 7.10938,-0.70313 2.40394,-0.13464 4.82685,-0.16902 7.22461,-0.0996 z" />
    <path
       id="path468"
       style="fill:#ffffff;fill-opacity:1;stroke:none;stroke-width:2.66835;stroke-linejoin:round;stop-color:#000000"
       d="m 397.26476,236.52109 c -0.34375,0 -0.72851,0.0566 -1.1289,0.15821 -0.40039,0.10156 -0.8168,0.24843 -1.22461,0.42968 -0.81563,0.3625 -1.59649,0.86211 -2.14649,1.41211 -0.51622,0.51623 -0.92116,1.09074 -1.22461,1.70117 -0.30344,0.61044 -0.50561,1.25673 -0.61328,1.91602 -0.10767,0.65929 -0.12187,1.33135 -0.0508,1.99414 0.0711,0.6628 0.22809,1.31656 0.46094,1.9375 0.23285,0.62094 0.54232,1.2104 0.91992,1.74414 0.37761,0.53374 0.82278,1.01093 1.32813,1.41211 0.50534,0.40118 1.06946,0.72595 1.68554,0.94922 0.61609,0.22327 1.28433,0.3457 1.99414,0.3457 0.34375,0 0.72852,-0.0566 1.12891,-0.1582 0.40039,-0.10156 0.8168,-0.24844 1.22461,-0.42969 0.81562,-0.3625 1.59648,-0.86211 2.14648,-1.41211 0.51623,-0.51622 0.92117,-1.09073 1.22461,-1.70117 0.30345,-0.61044 0.50561,-1.25672 0.61328,-1.91601 0.10768,-0.6593 0.12188,-1.33135 0.0508,-1.99415 -0.0711,-0.66279 -0.22809,-1.31655 -0.46094,-1.9375 -0.23286,-0.62094 -0.54232,-1.20845 -0.91992,-1.74218 -0.37761,-0.53374 -0.82278,-1.01289 -1.32813,-1.41407 -0.50535,-0.40117 -1.07141,-0.72595 -1.6875,-0.94921 -0.61608,-0.22327 -1.28237,-0.34571 -1.99219,-0.34571 z" />
    <path
       id="path466"
       style="fill:#ffffff;fill-opacity:1;stroke:none;stroke-width:2.66835;stroke-linejoin:round;stop-color:#000000"
       d="m 127.76476,236.52109 c -0.33725,0 -0.70033,0.0666 -1.07617,0.18946 -0.37584,0.1229 -0.76489,0.30265 -1.15625,0.52539 -0.78272,0.44547 -1.57292,1.06706 -2.2793,1.77343 -0.70637,0.70638 -1.32796,1.49658 -1.77343,2.2793 -0.22274,0.39136 -0.40249,0.78041 -0.52539,1.15625 -0.12291,0.37584 -0.18946,0.73892 -0.18946,1.07617 0,0.34491 0.0676,0.71373 0.19141,1.09375 0.12377,0.38003 0.30259,0.77127 0.52734,1.16407 0.4495,0.78559 1.07832,1.57479 1.79493,2.27734 0.7166,0.70254 1.52095,1.31908 2.32226,1.75976 0.40066,0.22035 0.80182,0.39624 1.18945,0.51758 0.38764,0.12135 0.76343,0.1875 1.11524,0.1875 0.30676,0 0.66462,-0.0615 1.04883,-0.17187 0.3842,-0.11042 0.79314,-0.26975 1.20507,-0.4668 0.82387,-0.39409 1.65455,-0.93722 2.29102,-1.53516 0.63647,-0.59793 1.21527,-1.40855 1.63477,-2.23242 0.20974,-0.41193 0.37856,-0.82686 0.49609,-1.2207 0.11753,-0.39384 0.18359,-0.76576 0.18359,-1.0918 0,-0.36642 -0.0657,-0.75679 -0.18554,-1.15625 -0.11985,-0.39945 -0.2937,-0.80878 -0.51172,-1.21875 -0.43605,-0.81992 -1.04725,-1.63841 -1.7461,-2.36523 -0.69884,-0.72682 -1.48507,-1.3629 -2.27343,-1.81641 -0.39419,-0.22675 -0.78975,-0.40661 -1.17383,-0.53125 -0.38408,-0.12464 -0.75706,-0.19336 -1.10938,-0.19336 z" />
    <path
       id="path464"
       style="fill:#ffffff;fill-opacity:1;stroke:none;stroke-width:2.66835;stroke-linejoin:round;stop-color:#000000"
       d="m 328.17883,224.26914 c -0.0804,-0.0804 -0.36053,-0.0246 -0.80079,0.14258 -0.44025,0.16715 -1.03996,0.44635 -1.7539,0.8164 -1.42789,0.74011 -3.31661,1.84129 -5.32227,3.125 -1.58811,1.01647 -2.84273,1.84614 -3.83984,2.56641 -0.99712,0.72027 -1.73747,1.33197 -2.29492,1.91406 -0.55745,0.5821 -0.93205,1.13438 -1.20117,1.73633 -0.26913,0.60195 -0.43232,1.25338 -0.56446,2.0332 -0.12691,0.749 -0.31136,1.44667 -0.54883,2.08985 -0.23746,0.64317 -0.52864,1.23202 -0.86328,1.76172 -0.33463,0.52969 -0.7144,0.99965 -1.13281,1.4082 -0.41841,0.40855 -0.87449,0.75542 -1.36328,1.03516 -0.48879,0.27973 -1.0089,0.49345 -1.55469,0.63671 -0.54579,0.14327 -1.11764,0.21572 -1.70703,0.21485 -0.58939,-8.7e-4 -1.1968,-0.0758 -1.81641,-0.22852 -0.6196,-0.15267 -1.25029,-0.38317 -1.88671,-0.69531 -0.63555,-0.31171 -1.15005,-0.53583 -1.64258,-0.64258 -0.49254,-0.10675 -0.96332,-0.0966 -1.51563,0.0586 -0.5523,0.15519 -1.18513,0.45557 -2,0.92968 -0.81487,0.47412 -1.81157,1.12264 -3.09179,1.97266 -1.5161,1.00663 -2.89529,2.0097 -3.89454,2.81641 -0.99924,0.80671 -1.61914,1.41742 -1.61914,1.63476 0,0.21734 0.34819,0.66111 0.90821,1.20313 0.56001,0.54201 1.33196,1.18208 2.18164,1.78711 0.92708,0.66014 1.89596,1.24764 2.89648,1.76367 1.00052,0.51602 2.0318,0.95953 3.08594,1.33008 1.05414,0.37054 2.13081,0.66886 3.21875,0.89257 1.08794,0.22372 2.18714,0.3737 3.28906,0.44922 1.10192,0.0755 2.20665,0.076 3.30274,0.002 1.09608,-0.074 2.18347,-0.22233 3.2539,-0.44727 1.07043,-0.22494 2.12348,-0.52709 3.14844,-0.9043 1.02496,-0.3772 2.02276,-0.8305 2.98242,-1.36132 0.6133,-0.33924 1.23328,-0.73968 1.85156,-1.19141 0.61829,-0.45173 1.23541,-0.95487 1.8418,-1.49805 1.21279,-1.08636 2.38333,-2.33422 3.44727,-3.66015 1.06394,-1.32594 2.02074,-2.72975 2.80078,-4.12696 0.39002,-0.6986 0.73557,-1.39521 1.02929,-2.08008 0.29373,-0.68486 0.53626,-1.35773 0.7168,-2.00781 0.27773,-1 0.50526,-2.40756 0.67578,-3.9707 0.17053,-1.56314 0.28366,-3.28193 0.33203,-4.90625 0.0484,-1.62432 0.0321,-3.15436 -0.0566,-4.33789 -0.0444,-0.59177 -0.10801,-1.09693 -0.18945,-1.48438 -0.0814,-0.38745 -0.18235,-0.65695 -0.30273,-0.77734 z" />
    <path
       id="path462"
       style="fill:#ffffff;fill-opacity:1;stroke:none;stroke-width:2.66835;stroke-linejoin:round;stop-color:#000000"
       d="m 202.26476,223.54258 -0.58984,4.1582 c -0.21239,1.49761 -0.28132,3.01251 -0.21875,4.52344 0.0626,1.51093 0.25728,3.01659 0.57031,4.49804 0.31304,1.48146 0.74419,2.93847 1.28321,4.34766 0.53901,1.40919 1.18527,2.77033 1.92578,4.06445 0.74051,1.29413 1.57662,2.51999 2.49414,3.65625 0.91751,1.13627 1.91629,2.18354 2.98633,3.11914 1.07003,0.93561 2.21014,1.76098 3.4082,2.45313 1.19806,0.69215 2.45426,1.25034 3.75586,1.65625 1.44833,0.45167 2.70671,0.79026 3.87109,1.01562 1.16438,0.22537 2.23573,0.33904 3.31055,0.3379 1.07482,-10e-4 2.15237,-0.11589 3.33203,-0.34375 1.17966,-0.22787 2.46056,-0.56866 3.93945,-1.02344 1.12142,-0.34486 2.40204,-0.88887 3.67383,-1.52149 1.27179,-0.63261 2.53456,-1.35417 3.62305,-2.05859 1.08848,-0.70442 2.00271,-1.39088 2.57422,-1.95117 0.28575,-0.28015 0.48613,-0.5288 0.58007,-0.73242 0.094,-0.20363 0.081,-0.36279 -0.0586,-0.46289 -1.92126,-1.37798 -3.64394,-2.54922 -5.17383,-3.51563 -1.52989,-0.96641 -2.86637,-1.72802 -4.01758,-2.28906 -1.1512,-0.56104 -2.11713,-0.92018 -2.90234,-1.08203 -0.3926,-0.0809 -0.73948,-0.11342 -1.04297,-0.0957 -0.30348,0.0177 -0.56334,0.0856 -0.77929,0.20118 -0.67839,0.36306 -1.36021,0.63228 -2.03321,0.81445 -0.673,0.18216 -1.33749,0.27729 -1.98242,0.29101 -0.64493,0.0137 -1.27107,-0.055 -1.86523,-0.19726 -0.59417,-0.14227 -1.15703,-0.35873 -1.67774,-0.64453 -0.52071,-0.2858 -0.99926,-0.63976 -1.42383,-1.05664 -0.42456,-0.41689 -0.79387,-0.89613 -1.09961,-1.43164 -0.30573,-0.53552 -0.54672,-1.12785 -0.71093,-1.76954 -0.16422,-0.64168 -0.25196,-1.33295 -0.25196,-2.06835 0,-0.54673 -0.0833,-1.03998 -0.30859,-1.53907 -0.22524,-0.49908 -0.59246,-1.00336 -1.16016,-1.57226 -0.56769,-0.56891 -1.33593,-1.20281 -2.36328,-1.95899 -1.02735,-0.75618 -2.31375,-1.63636 -3.91797,-2.69726 z" />
    <path
       id="path460"
       style="fill:#ffffff;fill-opacity:1;stroke:none;stroke-width:2.66835;stroke-linejoin:round;stop-color:#000000"
       d="m 351.27844,182.74375 c -0.0649,-0.0763 -1.12341,0.18821 -2.77735,0.67578 -1.65394,0.48757 -3.90315,1.19759 -6.34765,2.01367 -2.55204,0.85198 -5.17372,1.64887 -7.8711,2.39063 -2.69738,0.74175 -5.46947,1.42795 -8.32031,2.06054 -2.85084,0.6326 -5.78056,1.21183 -8.79297,1.73633 -3.01241,0.52451 -6.10893,0.99464 -9.29102,1.41211 -3.18208,0.41748 -6.45067,0.78224 -9.81054,1.09375 -3.35987,0.31151 -6.8097,0.57074 -10.35547,0.77735 -3.54577,0.20661 -7.18796,0.36011 -10.92774,0.46289 -3.73977,0.10277 -7.57764,0.15429 -11.51953,0.15429 -4.25595,0 -8.43927,-0.069 -12.54492,-0.20508 -4.10565,-0.13604 -8.13351,-0.33917 -12.07617,-0.60937 -3.94266,-0.2702 -7.80137,-0.6073 -11.56836,-1.00977 -3.76699,-0.40246 -7.44284,-0.86949 -11.02148,-1.40234 -3.57864,-0.53285 -7.0599,-1.13163 -10.4375,-1.79297 -3.37761,-0.66133 -6.65057,-1.38589 -9.81446,-2.17383 -3.16389,-0.78794 -6.21875,-1.63812 -9.15625,-2.55078 -2.93749,-0.91265 -5.75861,-1.88835 -8.45703,-2.92383 -0.20592,-0.079 -0.41009,-0.002 -0.61523,0.23243 -0.20515,0.23405 -0.41063,0.62474 -0.61719,1.17773 -0.41313,1.10599 -0.83175,2.85655 -1.26367,5.27344 -0.37884,2.11985 -0.70151,3.66717 -0.77344,4.85937 -0.036,0.5961 -0.01,1.10282 0.10352,1.54883 0.11344,0.44601 0.3137,0.83116 0.625,1.18164 0.31129,0.35048 0.73536,0.66707 1.29296,0.97656 0.55761,0.3095 1.2492,0.61054 2.10157,0.9336 1.70473,0.64612 4.04815,1.37464 7.22265,2.40234 3.40848,1.10345 6.80345,2.07871 10.40039,2.96289 3.59694,0.88418 7.39522,1.67775 11.60938,2.41797 4.21416,0.74022 8.84534,1.42803 14.10547,2.09961 5.26013,0.67158 11.1499,1.32762 17.88476,2.00586 1.15317,0.11613 2.8844,0.19591 5.05078,0.24609 2.16639,0.0502 4.7683,0.0702 7.66211,0.0625 5.78763,-0.0153 12.744,-0.13788 19.72657,-0.33593 6.98256,-0.19805 13.99166,-0.47118 19.88281,-0.78711 2.94557,-0.15797 5.61144,-0.32668 7.85547,-0.50196 2.24402,-0.17527 4.06558,-0.35848 5.32226,-0.54297 5.775,-0.84776 14.10001,-2.26569 18.5,-3.15234 2.06144,-0.4154 4.67868,-1.05993 7.4668,-1.81445 2.78812,-0.75453 5.74604,-1.62014 8.49219,-2.47461 2.74615,-0.85447 5.27932,-1.69881 7.21484,-2.41406 1.93552,-0.71526 3.27462,-1.30181 3.63086,-1.63868 0.16277,-0.15391 0.18456,-1.0941 0.11328,-2.43554 -0.0713,-1.34145 -0.23562,-3.08289 -0.44726,-4.83594 -0.21164,-1.75305 -0.47019,-3.51752 -0.72852,-4.90625 -0.25833,-1.38873 -0.51717,-2.4019 -0.72851,-2.65039 z" />
  </g>
</svg>
