<?xml version="1.0" encoding="UTF-8" standalone="no"?>
<svg
   viewBox="0 0 89.999977 60"
   fill="none"
   x="0px"
   y="0px"
   version="1.1"
   id="svg14347"
   sodipodi:docname="noun-merge-5784095.svg"
   width="89.999977"
   height="60"
   inkscape:version="1.2.2 (b0a8486541, 2022-12-01)"
   xmlns:inkscape="http://www.inkscape.org/namespaces/inkscape"
   xmlns:sodipodi="http://sodipodi.sourceforge.net/DTD/sodipodi-0.dtd"
   xmlns="http://www.w3.org/2000/svg"
   xmlns:svg="http://www.w3.org/2000/svg">
  <defs
     id="defs14351" />
  <sodipodi:namedview
     id="namedview14349"
     pagecolor="#ffffff"
     bordercolor="#666666"
     borderopacity="1.0"
     inkscape:showpageshadow="2"
     inkscape:pageopacity="0.0"
     inkscape:pagecheckerboard="0"
     inkscape:deskcolor="#d1d1d1"
     showgrid="false"
     inkscape:zoom="1.888"
     inkscape:cx="45.021186"
     inkscape:cy="42.637712"
     inkscape:window-width="1680"
     inkscape:window-height="979"
     inkscape:window-x="0"
     inkscape:window-y="0"
     inkscape:window-maximized="1"
     inkscape:current-layer="svg14347" />
  <path
     d="M 4.99717,0 C 2.23731,0 0,2.2386 0,5 0,7.7614 2.23731,10 4.99717,10 H 19.9887 c 5.3392,0 9.1015,1.3145 12.0307,3.1462 3.0199,1.8885 5.4072,4.4799 7.8037,7.4773 0.5125,0.641 1.0478,1.3331 1.6034,2.0516 1.8301,2.3663 3.881,5.0182 6.0644,7.0663 0.1397,0.131 0.2811,0.2609 0.4242,0.3893 -4.1062,2.7316 -7.132,6.1702 -9.5911,9.2458 -0.7782,0.9733 -1.4755,1.8735 -2.1229,2.7095 -1.6795,2.1682 -3.024,3.904 -4.5762,5.3601 C 29.7452,49.2093 28.0971,50 25.9853,50 H 4.99718 C 2.23732,50 1e-5,52.2386 1e-5,55 c 0,2.7614 2.23731,5 4.99717,5 H 25.9853 c 5.3839,0 9.3577,-2.3343 12.4752,-5.2586 2.1834,-2.0481 4.234,-4.6996 6.0641,-7.066 0.5556,-0.7184 1.0912,-1.4109 1.6037,-2.0519 2.3965,-2.9974 4.7838,-5.5888 7.8037,-7.4773 C 56.8612,36.3145 60.6235,35 65.9627,35 h 4.9972 v 10.9956 c 0,1.806 2.2031,2.687 3.4471,1.3784 L 89.4494,31.5 c 0.7478,-0.7866 0.7319,-2.0264 -0.0358,-2.7935 L 74.3713,13.409 c -1.2596,-1.2587 -3.4114,-0.3661 -3.4114,1.4151 V 25 H 59.9661 C 57.8543,25 56.2062,24.2093 54.3265,22.4461 52.7743,20.99 51.4298,19.2542 49.7504,17.086 49.1029,16.2501 48.4055,15.3497 47.6274,14.3765 45.0268,11.1239 41.7923,7.4653 37.3164,4.6663 32.7498,1.8105 27.1424,0 19.9887,0 Z"
     fill="#000000"
     id="path14341"
     style="fill:#850000;fill-opacity:1" />
</svg>
