<?xml version="1.0" encoding="UTF-8" standalone="no"?>
<svg
   version="1.1"
   x="0px"
   y="0px"
   viewBox="0 0 65.190002 64.958359"
   xml:space="preserve"
   id="svg8704"
   sodipodi:docname="noun-cloud-security-6307530.svg"
   width="65.190002"
   height="64.958359"
   inkscape:version="1.2.2 (b0a8486541, 2022-12-01)"
   xmlns:inkscape="http://www.inkscape.org/namespaces/inkscape"
   xmlns:sodipodi="http://sodipodi.sourceforge.net/DTD/sodipodi-0.dtd"
   xmlns="http://www.w3.org/2000/svg"
   xmlns:svg="http://www.w3.org/2000/svg"><defs
     id="defs8708" /><sodipodi:namedview
     id="namedview8706"
     pagecolor="#ffffff"
     bordercolor="#666666"
     borderopacity="1.0"
     inkscape:showpageshadow="2"
     inkscape:pageopacity="0.0"
     inkscape:pagecheckerboard="0"
     inkscape:deskcolor="#d1d1d1"
     showgrid="false"
     inkscape:zoom="4.2652689"
     inkscape:cx="39.622356"
     inkscape:cy="13.012075"
     inkscape:window-width="1680"
     inkscape:window-height="979"
     inkscape:window-x="0"
     inkscape:window-y="0"
     inkscape:window-maximized="1"
     inkscape:current-layer="svg8704" /><g
     id="g2201"
     transform="matrix(0.77011337,0,0,0.63483089,0.8946848,18.408869)"
     style="fill:#850000;fill-opacity:1;stroke:#850000;stroke-opacity:1"><path
       d="M 11.7252,47.982 C 10.94395,47.51325 10.0064,47.82575 9.5377,48.607 L 2.8189,60.482 c -0.46875,0.78125 -0.15625,1.7188 0.625,2.1875 0.3125,0.15625 0.46875,0.15625 0.78125,0.15625 0.46875,0 1.0938,-0.3125 1.4062,-0.78125 l 6.7188,-11.875 c 0.3125,-0.78125 0.15625,-1.7188 -0.625,-2.1875 z"
       id="path1440"
       style="fill:#850000;fill-opacity:1;stroke:#850000;stroke-opacity:1" /><path
       d="m 24.0692,47.982 c -0.78125,-0.46875 -1.7188,-0.15625 -2.1875,0.625 L 9.5377,70.482 c -0.46875,0.78125 -0.15625,1.7188 0.625,2.1875 0.3125,0.15625 0.46875,0.15625 0.78125,0.15625 0.46875,0 1.0938,-0.3125 1.4062,-0.78125 l 12.344,-21.875 c 0.46875,-0.78125 0.15625,-1.7188 -0.625,-2.1875 z"
       id="path1442"
       style="fill:#850000;fill-opacity:1;stroke:#850000;stroke-opacity:1" /><path
       d="m 36.5692,47.982 c -0.78125,-0.46875 -1.7188,-0.15625 -2.1875,0.625 l -6.7188,11.875 c -0.46875,0.78125 -0.15625,1.7188 0.625,2.1875 0.3125,0.15625 0.46875,0.15625 0.78125,0.15625 0.46875,0 1.0938,-0.3125 1.4062,-0.78125 l 6.7188,-11.875 c 0.3125,-0.78125 0.15625,-1.7188 -0.625,-2.1875 z"
       id="path1444"
       style="fill:#850000;fill-opacity:1;stroke:#850000;stroke-opacity:1" /><path
       d="m 48.9132,47.982 c -0.78125,-0.46875 -1.7188,-0.15625 -2.1875,0.625 l -12.344,21.875 c -0.46875,0.78125 -0.15625,1.7188 0.625,2.1875 0.15625,0.15625 0.46875,0.15625 0.78125,0.15625 0.46875,0 1.0938,-0.3125 1.4062,-0.78125 l 12.344,-21.875 c 0.46875,-0.78125 0.15625,-1.7188 -0.625,-2.1875 z"
       id="path1446"
       style="fill:#850000;fill-opacity:1;stroke:#850000;stroke-opacity:1" /><path
       d="m 61.4132,47.982 c -0.78125,-0.46875 -1.7188,-0.15625 -2.1875,0.625 l -6.7188,11.875 c -0.46875,0.78125 -0.15625,1.7188 0.625,2.1875 0.3125,0.15625 0.46875,0.15625 0.78125,0.15625 0.46875,0 1.0938,-0.3125 1.4062,-0.78125 l 6.7188,-11.875 c 0.3125,-0.78125 0,-1.7188 -0.625,-2.1875 z"
       id="path1448"
       style="fill:#850000;fill-opacity:1;stroke:#850000;stroke-opacity:1" /><path
       d="m 73.7572,47.982 c -0.78125,-0.46875 -1.7188,-0.15625 -2.1875,0.625 l -12.344,21.875 c -0.46875,0.78125 -0.15625,1.7188 0.625,2.1875 0.3125,0.15625 0.46875,0.15625 0.78125,0.15625 0.46875,0 1.0938,-0.3125 1.4062,-0.78125 l 12.344,-21.875 c 0.3125,-0.78125 0.15625,-1.7188 -0.625,-2.1875 z"
       id="path1450"
       style="fill:#850000;fill-opacity:1;stroke:#850000;stroke-opacity:1" /></g><g
     id="g8698"
     style="fill:#850000;fill-opacity:1;stroke:#850000;stroke-width:1.2;stroke-dasharray:none;stroke-opacity:1"
     transform="translate(0.60000002,-4.61)"><g
       id="g8682"
       style="fill:#850000;fill-opacity:1;stroke:#850000;stroke-width:1.2;stroke-dasharray:none;stroke-opacity:1"><path
         d="m 40.64,48.82 c -0.54,0 -0.97,-0.43 -0.97,-0.97 0,-0.54 0.43,-0.97 0.97,-0.97 h 6.76 c 3.87,-0.06 7.53,-1.61 10.28,-4.37 2.82,-2.84 4.38,-6.59 4.38,-10.57 C 62.06,23.7 55.36,17 47.12,17 H 44.24 C 43.87,17 43.53,16.79 43.37,16.46 40.53,10.72 34.79,7.15 28.4,7.15 c -9.21,0 -16.7,7.49 -16.7,16.7 0,0.74 0.05,1.51 0.15,2.29 0.03,0.26 -0.04,0.53 -0.21,0.73 -0.17,0.2 -0.41,0.33 -0.67,0.35 -2.31,0.19 -4.49,1.2 -6.14,2.85 -1.86,1.86 -2.89,4.34 -2.89,6.97 0,5.43 4.42,9.84 9.85,9.84 h 10.08 c 0.54,0 0.97,0.43 0.97,0.97 0,0.54 -0.43,0.97 -0.97,0.97 H 11.79 C 5.29,48.82 0,43.54 0,37.04 0,33.89 1.23,30.93 3.45,28.7 5.19,26.96 7.42,25.81 9.82,25.41 9.78,24.88 9.76,24.35 9.76,23.85 9.76,13.57 18.12,5.21 28.4,5.21 c 6.93,0 13.17,3.76 16.43,9.85 h 2.28 c 9.31,0 16.88,7.57 16.88,16.88 0,4.5 -1.76,8.74 -4.95,11.94 -3.11,3.11 -7.24,4.86 -11.64,4.94 z"
         id="path8680"
         style="fill:#850000;fill-opacity:1;stroke:#850000;stroke-width:1.2;stroke-dasharray:none;stroke-opacity:1" /></g><g
       id="g13954"><rect
         style="fill:#ffffff;fill-opacity:1;stroke:#850000;stroke-width:1.2;stroke-linejoin:round;stroke-dasharray:none;stroke-opacity:1;stop-color:#000000"
         id="rect10757"
         width="18.38339"
         height="15.191474"
         x="22.498543"
         y="32.264561"
         transform="translate(-0.60000002,4.61)" /><g
         id="g8696"
         style="fill:#850000;fill-opacity:1;stroke:#850000;stroke-width:1.2;stroke-dasharray:none;stroke-opacity:1"
         transform="translate(0,-6)"><g
           id="g8686"
           style="fill:#850000;fill-opacity:1;stroke:#850000;stroke-width:1.2;stroke-dasharray:none;stroke-opacity:1"><path
             d="M 39.66,58.79 H 22.85 c -1.08,0 -1.95,-0.88 -1.95,-1.95 V 44.1 c 0,-1.08 0.88,-1.95 1.95,-1.95 h 16.81 c 1.08,0 1.95,0.88 1.95,1.95 v 12.73 c 0,1.08 -0.87,1.96 -1.95,1.96 z m -16.81,-14.7 -0.02,12.75 16.83,0.02 c 0.01,0 0.02,-0.01 0.02,-0.02 V 44.1 Z"
             id="path8684"
             style="fill:#850000;fill-opacity:1;stroke:#850000;stroke-width:1.2;stroke-dasharray:none;stroke-opacity:1" /></g><g
           id="g8690"
           style="fill:#850000;fill-opacity:1;stroke:#850000;stroke-width:1.2;stroke-dasharray:none;stroke-opacity:1"><path
             d="m 36.91,44.09 c -0.54,0 -0.97,-0.43 -0.97,-0.97 v -4.4 c 0,-2.59 -2.11,-4.69 -4.69,-4.69 -2.58,0 -4.69,2.11 -4.69,4.69 v 4.4 c 0,0.54 -0.43,0.97 -0.97,0.97 -0.54,0 -0.97,-0.43 -0.97,-0.97 v -4.4 c 0,-3.66 2.98,-6.63 6.63,-6.63 3.66,0 6.63,2.98 6.63,6.63 v 4.4 c 0,0.53 -0.43,0.97 -0.97,0.97 z"
             id="path8688"
             style="fill:#850000;fill-opacity:1;stroke:#850000;stroke-width:1.2;stroke-dasharray:none;stroke-opacity:1" /></g><g
           id="g8694"
           style="fill:#850000;fill-opacity:1;stroke:#850000;stroke-width:1.2;stroke-dasharray:none;stroke-opacity:1"><path
             d="m 31.25,53.76 c -0.54,0 -0.97,-0.43 -0.97,-0.97 v -4.64 c 0,-0.54 0.43,-0.97 0.97,-0.97 0.54,0 0.97,0.43 0.97,0.97 v 4.64 c 0,0.53 -0.43,0.97 -0.97,0.97 z"
             id="path8692"
             style="fill:#850000;fill-opacity:1;stroke:#850000;stroke-width:1.2;stroke-dasharray:none;stroke-opacity:1" /></g></g></g></g></svg>
