<?xml version="1.0" encoding="UTF-8" standalone="no"?>
<svg
   version="1.1"
   x="0px"
   y="0px"
   viewBox="-4.9 -9.8 89.861997 88.824995"
   xml:space="preserve"
   id="svg1315"
   sodipodi:docname="noun-cloud-security-6628058.svg"
   width="89.862"
   height="88.824997"
   inkscape:version="1.2.2 (b0a8486541, 2022-12-01)"
   xmlns:inkscape="http://www.inkscape.org/namespaces/inkscape"
   xmlns:sodipodi="http://sodipodi.sourceforge.net/DTD/sodipodi-0.dtd"
   xmlns="http://www.w3.org/2000/svg"
   xmlns:svg="http://www.w3.org/2000/svg"><defs
     id="defs1319" /><sodipodi:namedview
     id="namedview1317"
     pagecolor="#ffffff"
     bordercolor="#666666"
     borderopacity="1.0"
     inkscape:showpageshadow="2"
     inkscape:pageopacity="0.0"
     inkscape:pagecheckerboard="0"
     inkscape:deskcolor="#d1d1d1"
     showgrid="false"
     inkscape:zoom="4.9322646"
     inkscape:cx="26.357061"
     inkscape:cy="27.674915"
     inkscape:window-width="1680"
     inkscape:window-height="979"
     inkscape:window-x="0"
     inkscape:window-y="0"
     inkscape:window-maximized="1"
     inkscape:current-layer="svg1315" /><style
     type="text/css"
     id="style1307">
	.st0{fill-rule:evenodd;clip-rule:evenodd;}
</style><g
     id="g4603"
     style="fill:#000000;fill-opacity:1"><g
       id="g2201"
       transform="translate(-0.5348535,6)"
       style="fill:#000000;fill-opacity:1"><path
         d="M 11.7252,47.982 C 10.94395,47.51325 10.0064,47.82575 9.5377,48.607 L 2.8189,60.482 c -0.46875,0.78125 -0.15625,1.7188 0.625,2.1875 0.3125,0.15625 0.46875,0.15625 0.78125,0.15625 0.46875,0 1.0938,-0.3125 1.4062,-0.78125 l 6.7188,-11.875 c 0.3125,-0.78125 0.15625,-1.7188 -0.625,-2.1875 z"
         id="path1440"
         style="fill:#000000;fill-opacity:1" /><path
         d="m 24.0692,47.982 c -0.78125,-0.46875 -1.7188,-0.15625 -2.1875,0.625 L 9.5377,70.482 c -0.46875,0.78125 -0.15625,1.7188 0.625,2.1875 0.3125,0.15625 0.46875,0.15625 0.78125,0.15625 0.46875,0 1.0938,-0.3125 1.4062,-0.78125 l 12.344,-21.875 c 0.46875,-0.78125 0.15625,-1.7188 -0.625,-2.1875 z"
         id="path1442"
         style="fill:#000000;fill-opacity:1" /><path
         d="m 36.5692,47.982 c -0.78125,-0.46875 -1.7188,-0.15625 -2.1875,0.625 l -6.7188,11.875 c -0.46875,0.78125 -0.15625,1.7188 0.625,2.1875 0.3125,0.15625 0.46875,0.15625 0.78125,0.15625 0.46875,0 1.0938,-0.3125 1.4062,-0.78125 l 6.7188,-11.875 c 0.3125,-0.78125 0.15625,-1.7188 -0.625,-2.1875 z"
         id="path1444"
         style="fill:#000000;fill-opacity:1" /><path
         d="m 48.9132,47.982 c -0.78125,-0.46875 -1.7188,-0.15625 -2.1875,0.625 l -12.344,21.875 c -0.46875,0.78125 -0.15625,1.7188 0.625,2.1875 0.15625,0.15625 0.46875,0.15625 0.78125,0.15625 0.46875,0 1.0938,-0.3125 1.4062,-0.78125 l 12.344,-21.875 c 0.46875,-0.78125 0.15625,-1.7188 -0.625,-2.1875 z"
         id="path1446"
         style="fill:#000000;fill-opacity:1" /><path
         d="m 61.4132,47.982 c -0.78125,-0.46875 -1.7188,-0.15625 -2.1875,0.625 l -6.7188,11.875 c -0.46875,0.78125 -0.15625,1.7188 0.625,2.1875 0.3125,0.15625 0.46875,0.15625 0.78125,0.15625 0.46875,0 1.0938,-0.3125 1.4062,-0.78125 l 6.7188,-11.875 c 0.3125,-0.78125 0,-1.7188 -0.625,-2.1875 z"
         id="path1448"
         style="fill:#000000;fill-opacity:1" /><path
         d="m 73.7572,47.982 c -0.78125,-0.46875 -1.7188,-0.15625 -2.1875,0.625 l -12.344,21.875 c -0.46875,0.78125 -0.15625,1.7188 0.625,2.1875 0.3125,0.15625 0.46875,0.15625 0.78125,0.15625 0.46875,0 1.0938,-0.3125 1.4062,-0.78125 l 12.344,-21.875 c 0.3125,-0.78125 0.15625,-1.7188 -0.625,-2.1875 z"
         id="path1450"
         style="fill:#000000;fill-opacity:1" /></g><path
       class="st0"
       d="M 8.576,18.473 C 1.125,18.697 -4.9,24.86 -4.9,32.362 c 0,7.643 6.253,13.896 13.896,13.896 h 9.253 v -17.95 c 0,-2.386 1.601,-4.415 3.781,-5.069 v -1.573 c 0,-9.911 8.09,-18.001 18.001,-18.001 9.911,0 18.001,8.09 18.001,18.001 v 1.573 c 2.18,0.653 3.781,2.683 3.781,5.069 v 17.95 h 13.052 c 5.553,0 10.097,-4.544 10.097,-10.097 0,-5.106 -3.841,-9.358 -8.777,-10.01 h -0.002 c 0.771,-2.176 1.193,-4.519 1.193,-6.959 0,-11.504 -9.325,-20.829 -20.829,-20.829 -2.397,0 -4.699,0.406 -6.842,1.151 C 45.486,-6.139 38.744,-9.8 31.147,-9.8 16.247,-9.8 5.311,4.046 8.576,18.472 Z"
       id="path1309"
       sodipodi:nodetypes="csscscssscscssccsscscc"
       style="fill:#000000;fill-opacity:1" /><path
       d="M 47.318,23.018 H 32.744 v -1.352 c 0,-3.997 3.29,-7.287 7.287,-7.287 3.997,0 7.287,3.29 7.287,7.287 z"
       style="clip-rule:evenodd;fill:#000000;fill-opacity:1;fill-rule:evenodd"
       id="path3027" /></g><g
     id="g4592"
     style="fill:#850000;fill-opacity:1"><path
       d="m 23.539,25.56 h 32.984999 c 1.511,0 2.748,1.237 2.748,2.748 v 26.506 c 0,1.511 -1.237,2.748 -2.748,2.748 -21.794423,0.197751 -21.784312,0.234482 -32.984999,0 -1.511,0 -2.748,-1.237 -2.748,-2.748 V 28.308 c 0,-1.512 1.236,-2.748 2.748,-2.748 z m 16.492,6.933 c 2.94,0 5.323,2.383 5.323,5.323 0,1.986 -1.087,3.717 -2.699,4.632 l 2.272,6.719 c 0.244,0.721 -0.288,1.461 -1.048,1.461 h -7.696 c -0.761,0 -1.292,-0.74 -1.048,-1.461 l 2.272,-6.719 c -1.612,-0.915 -2.699,-2.646 -2.699,-4.632 0,-2.939 2.383,-5.323 5.323,-5.323 z"
       style="clip-rule:evenodd;fill:#850000;fill-opacity:1;fill-rule:evenodd"
       id="path2273" /><path
       d="m 49.858998,23.017999 v -1.352 c 0,-5.4 -4.427998,-9.827998 -9.827998,-9.827998 -5.4,0 -9.828,4.427998 -9.828,9.827998 v 1.352 h -5.631 v -1.352 c 0,-8.508 6.951,-15.458998 15.459,-15.458998 8.508,0 15.458998,6.950998 15.458998,15.458998 v 1.352 z"
       style="clip-rule:evenodd;fill:#850000;fill-opacity:1;fill-rule:evenodd"
       id="path3090" /></g></svg>
