<?xml version="1.0" encoding="UTF-8" standalone="no"?>
<svg
   version="1.1"
   x="0px"
   y="0px"
   viewBox="0 0 48 48"
   xml:space="preserve"
   id="svg8"
   sodipodi:docname="noun-memory-5252952.svg"
   width="48"
   height="48"
   inkscape:version="1.2.2 (b0a8486541, 2022-12-01)"
   xmlns:inkscape="http://www.inkscape.org/namespaces/inkscape"
   xmlns:sodipodi="http://sodipodi.sourceforge.net/DTD/sodipodi-0.dtd"
   xmlns="http://www.w3.org/2000/svg"
   xmlns:svg="http://www.w3.org/2000/svg"><defs
     id="defs12" /><sodipodi:namedview
     id="namedview10"
     pagecolor="#ffffff"
     bordercolor="#666666"
     borderopacity="1.0"
     inkscape:showpageshadow="2"
     inkscape:pageopacity="0.0"
     inkscape:pagecheckerboard="0"
     inkscape:deskcolor="#d1d1d1"
     showgrid="false"
     inkscape:zoom="3.9333333"
     inkscape:cx="24.152543"
     inkscape:cy="30.381356"
     inkscape:window-width="1680"
     inkscape:window-height="979"
     inkscape:window-x="0"
     inkscape:window-y="0"
     inkscape:window-maximized="1"
     inkscape:current-layer="svg8" /><path
     d="M 45.707,14.293 44.414,13 44.707,12.707 c 0.391,-0.39 0.391,-1.024 0,-1.414 l -9,-9 c -0.391,-0.39 -1.024,-0.39 -1.414,0 l -32,32 c -0.391,0.391 -0.391,1.024 0,1.414 l 9,9 c 0.391,0.391 1.024,0.391 1.414,0 L 13,44.414 l 1.293,1.293 c 0.391,0.391 1.024,0.391 1.414,0 l 30,-30 c 0.39,-0.39 0.39,-1.024 0,-1.414 z M 39,8.414 42.586,12 42,12.586 l -3,-3 z m -8,0 L 32.586,10 10,32.586 8.414,31 Z M 12,42.586 8.414,39 h 1.171 l 3,3 z m 2,-2 -3.293,-3.293 C 10.519,37.105 10.265,37 10,37 H 6.414 l -2,-2 L 7,32.414 9.293,34.707 c 0.391,0.39 1.024,0.39 1.414,0 l 24,-24 c 0.391,-0.391 0.391,-1.024 0,-1.414 L 32.414,7 35,4.414 l 2,2 V 10 c 0,0.265 0.105,0.52 0.293,0.707 L 40.585,14 Z m 1,3 L 14.414,43 43,14.414 43.585,15 Z m 25.707,-4.293 c 0.391,0.39 0.391,1.024 0,1.414 -0.391,0.39 -1.024,0.391 -1.414,0 l -3,-3 c -0.391,-0.391 -0.391,-1.024 0,-1.414 0.391,-0.39 1.024,-0.39 1.414,0 z M 48,24 c 0,0.552 -0.448,1 -1,1 h -4 c -0.552,0 -1,-0.448 -1,-1 0,-0.552 0.448,-1 1,-1 h 4 c 0.552,0 1,0.448 1,1 z M 25,43 v 4 c 0,0.552 -0.448,1 -1,1 -0.552,0 -1,-0.448 -1,-1 v -4 c 0,-0.552 0.448,-1 1,-1 0.552,0 1,0.448 1,1 z M 7.293,8.707 c -0.391,-0.39 -0.391,-1.024 0,-1.414 0.391,-0.39 1.024,-0.391 1.414,0 l 3,3 c 0.391,0.391 0.391,1.024 0,1.414 -0.391,0.39 -1.024,0.39 -1.414,0 z M 5,25 H 1 C 0.448,25 0,24.552 0,24 0,23.448 0.448,23 1,23 h 4 c 0.552,0 1,0.448 1,1 0,0.552 -0.448,1 -1,1 z M 23,5 V 1 c 0,-0.552 0.448,-1 1,-1 0.552,0 1,0.448 1,1 V 5 C 25,5.552 24.552,6 24,6 23.448,6 23,5.552 23,5 Z"
     id="path2"
     style="fill:#850000;fill-opacity:1" /></svg>
