<?xml version="1.0" encoding="UTF-8" standalone="no"?>
<svg
   version="1.1"
   x="0px"
   y="0px"
   viewBox="0 0 45.571285 30.970098"
   xml:space="preserve"
   id="svg22658"
   sodipodi:docname="noun-ram-5252663.svg"
   width="45.571285"
   height="30.970098"
   inkscape:version="1.2.2 (b0a8486541, 2022-12-01)"
   xmlns:inkscape="http://www.inkscape.org/namespaces/inkscape"
   xmlns:sodipodi="http://sodipodi.sourceforge.net/DTD/sodipodi-0.dtd"
   xmlns="http://www.w3.org/2000/svg"
   xmlns:svg="http://www.w3.org/2000/svg"><defs
     id="defs22662" /><sodipodi:namedview
     id="namedview22660"
     pagecolor="#ffffff"
     bordercolor="#666666"
     borderopacity="1.0"
     inkscape:showpageshadow="2"
     inkscape:pageopacity="0.0"
     inkscape:pagecheckerboard="0"
     inkscape:deskcolor="#d1d1d1"
     showgrid="false"
     inkscape:zoom="3.9333333"
     inkscape:cx="22.372881"
     inkscape:cy="20.974576"
     inkscape:window-width="1680"
     inkscape:window-height="979"
     inkscape:window-x="0"
     inkscape:window-y="0"
     inkscape:window-maximized="1"
     inkscape:current-layer="svg22658" /><path
     d="m 26.438061,26.760334 c -0.819,1.368 -1.82,2.59 -2.936,3.717 -0.488,0.602 -1.331,0.61 -1.834,0.021 -1.146,-1.104 -2.173,-2.315 -2.999,-3.687 -0.294,-0.547 0.419,-0.899 0.716,-0.698 0.875,0.546 1.66,1.185 2.426,1.85 -0.317,-2.582 -0.429,-5.173 0.183,-7.743 0.051,-0.315 0.87,-0.604 1,-0.001 0.545,2.524 0.746,5.064 0.455,7.599 0.713,-0.634 1.449,-1.239 2.271,-1.755 0.552,-0.319 0.911,0.394 0.718,0.697 z m -14.682,-0.712 c -0.848,0.535 -1.613,1.172 -2.352,1.832 0.332,-2.553 0.215,-5.113 -0.336,-7.66 -0.073,-0.338 -0.831,-0.671 -1,0 -0.599,2.555 -0.585,5.117 -0.301,7.691 -0.751,-0.66 -1.529,-1.302 -2.383,-1.838 -0.542,-0.329 -0.912,0.42 -0.718,0.696 0.829,1.382 1.853,2.612 3,3.732 0.233,0.236 0.558,0.459 0.911,0.458 0.373,0.002 0.689,-0.224 0.929,-0.469 1.131,-1.132 2.153,-2.36 2.969,-3.747 0.317,-0.54 -0.45,-0.899 -0.719,-0.695 z m 33.811,-24.9289998 c 0,0 -0.009,10.8439998 -0.009,10.8439998 0.01,0.786 -0.769,1.074 -1.442,0.976 l 0.138,2.065 c 0.021,0.32 -0.22,0.596 -0.54,0.617 -6.939,0.285 -13.879,0.347 -20.818,0.35 -7.077,-0.015 -14.155,-0.089 -21.232,-0.4 -0.297,0.016 -0.57,-0.199 -0.591,-0.497 -0.04,-1.161 0.124,-1.892 0.173,-2.847 -0.25099999,-0.04 -0.44499999,-0.079 -0.59699999,-0.117 -0.052,0.034 -0.104,0.015 -0.155,-0.044 -0.242,-0.078 -0.274,-0.15 -0.115,-0.217 -0.491,-1.32 -0.27,-9.2609998 -0.379000003879,-10.89399982 -0.0049999961,-0.37 0.298000003879,-0.672 0.668000003879,-0.668 14.63399999,-0.247 29.26799999,-0.3 43.89799999,-0.285 0.602,-0.002999998 1.054,0.525 1.001,1.11700002 z m -30.409,0.701 c 0.929,0.749 1.84,1.516 2.728,2.306 3.126,-0.136 6.253,-0.152 9.381,-0.048 0.825,-0.732 1.67,-1.443 2.529,-2.14 -4.88,-0.028 -9.759,-0.066 -14.638,-0.118 z m -13.896,1.869 c 1.128,0.745 2.076,1.631 2.969,2.574 0.189,0.196 0.287,0.451 0.292,0.704 0.015,1.506 -0.068,3.002 -0.426,4.5019998 8.442,-0.426 28.571,-0.446 36.847,-0.464 -0.272,-1.3479998 -0.347,-2.6929998 -0.337,-4.0469998 0.004,-0.273 0.116,-0.522 0.292,-0.704 0.817,-0.844 1.683,-1.639 2.676,-2.33 l -0.006,-1.927 c -0.679,-0.002 -1.358,-0.005 -2.037,-0.008 -0.695,1.332 -1.733,2.349 -3.167,2.937 -0.138,0.084 -0.951,-0.048 -0.708,-0.707 0.34,-0.921 0.872,-1.609 1.511,-2.238 -0.865,-0.003 -1.729,-0.006 -2.594,-0.01 -0.709,1.343 -1.808,2.321 -3.253,2.913 -0.686,0.325 -0.779,-0.522 -0.707,-0.708 0.334,-0.919 0.903,-1.61 1.565,-2.214 -0.912,-0.004 -1.823,-0.011 -2.735,-0.015 -1.033,1.262 -2.112,2.479 -3.224,3.661 -0.171,0.183 -0.399,0.262 -0.633,0.262 -3.342,0.155 -6.685,0.173 -10.028,0.054 -0.242,0.004 -0.478,-0.094 -0.633,-0.262 -1.169,-1.245 -2.305,-2.525 -3.386,-3.859 -0.932,-0.011 -1.865,-0.02 -2.797,-0.032 0.772,0.656 1.39,1.469 1.803,2.469 0.208,0.53 -0.521,0.78 -0.707,0.707 -1.536,-0.635 -2.647,-1.735 -3.348,-3.209 -0.937,-0.013 -1.874,-0.028 -2.811,-0.042 0.814,0.659 1.466,1.485 1.893,2.518 0.086,0.14 -0.183,0.92 -0.707,0.707 -1.563,-0.634 -2.702,-1.749 -3.404,-3.258 -0.716,-0.012 -1.431,-0.019 -2.147,-0.032 z m 1.743,7.8419998 c -0.351,-1.399 -0.456,-2.7929998 -0.467,-4.1949998 -0.47,-0.547 -0.917,-1.114 -1.328,-1.712 l -0.103,3.777 c -0.044,1.1719998 -0.14599999,1.9229998 -0.26799999,2.3369998 0.46499999,-0.077 1.20299999,-0.145 2.16599999,-0.207 z m 40.062,1.401 c -13.65,-0.145 -27.333,-0.059 -40.973,-0.589 0.18,0.612 0.104,1.428 0.115,2.013 13.607,-0.522 27.214,-0.511 40.82,0.009 z m 0.53,-1.936 -0.015,-4.8549998 c -0.315,0.411 -0.647,0.806 -0.988,1.194 -0.008,1.225 -0.094,2.445 -0.345,3.6669998 0.535,-0.002 0.986,-0.004 1.348,-0.006 z m -3.874,15.053 c -0.838,0.533 -1.588,1.16 -2.314,1.815 0.346,-2.546 0.32,-5.11 -0.277,-7.643 -0.153,-0.648 -0.949,-0.316 -1,0 -0.553,2.56 -0.684,5.134 -0.351,7.701 -0.745,-0.684 -1.514,-1.339 -2.38,-1.891 -0.3,-0.207 -1.039,0.055 -0.721,0.693 0.826,1.385 1.821,2.635 2.94,3.785 0.493,0.61 1.359,0.616 1.858,0.008 1.131,-1.141 2.137,-2.387 2.965,-3.773 0.195,-0.307 -0.165,-1.038 -0.72,-0.695 z"
     id="path22652"
     style="fill:#850000;fill-opacity:1" /></svg>
