<?xml version="1.0" encoding="UTF-8" standalone="no"?>
<svg
   version="1.1"
   viewBox="-5 -10 69.387284 77.891967"
   id="svg21762"
   sodipodi:docname="noun-data-breach-7318223.svg"
   width="69.387283"
   height="77.891968"
   inkscape:version="1.2.2 (b0a8486541, 2022-12-01)"
   xmlns:inkscape="http://www.inkscape.org/namespaces/inkscape"
   xmlns:sodipodi="http://sodipodi.sourceforge.net/DTD/sodipodi-0.dtd"
   xmlns="http://www.w3.org/2000/svg"
   xmlns:svg="http://www.w3.org/2000/svg">
  <defs
     id="defs21766" />
  <sodipodi:namedview
     id="namedview21764"
     pagecolor="#ffffff"
     bordercolor="#666666"
     borderopacity="1.0"
     inkscape:showpageshadow="2"
     inkscape:pageopacity="0.0"
     inkscape:pagecheckerboard="0"
     inkscape:deskcolor="#d1d1d1"
     showgrid="false"
     inkscape:zoom="5.6227413"
     inkscape:cx="76.297303"
     inkscape:cy="18.051693"
     inkscape:window-width="1680"
     inkscape:window-height="979"
     inkscape:window-x="0"
     inkscape:window-y="0"
     inkscape:window-maximized="1"
     inkscape:current-layer="svg21762" />
  <path
     d="m 26.901707,66.641968 c -0.38672,0 -0.75391,-0.10156 -1.0977,-0.32422 l -0.28516,-0.16406 c -4.5781,-2.8477 -9.3164,-5.7969 -13.469,-9.543 -5.9999992,-5.4336 -10.2149992,-11.09 -12.83599913,-17.293 -1.93359997,-4.5156 -2.91019997,-9.2148 -2.94919997,-13.996 -0.01953,-4.1289 -0.01953,-8.3398 0,-12.41 V 6.7046877 c 0,-1.7305 0.55078,-2.1562 2.1367,-2.5039 1.01559997,-0.20312 2.03519992,-0.40625 3.0116999,-0.58984 2.1758001,-0.42578 4.4141001,-0.85547 6.5703001,-1.4023 4.4960991,-1.1406001 8.6874991,-3.3164 12.7969991,-6.6719 0.77344,-0.65234 1.5859,-1.2812 2.3789,-1.8906 0.77344,-0.60938 1.5664,-1.2227 2.3398,-1.8516 0.91406,-0.7109398 1.832,-0.7343798 2.7656,-0.01953 2.1758,1.6875 5.0234,3.8867 7.8945,6 0.52734,0.38672 1.1172,0.73438 1.75,1.0977 0.36719,0.20311996 0.73438,0.42577994 1.0977,0.67187994 0.26562,0.16406 0.42578,0.46875 0.44922,0.77343997 0.01953,0.32422 -0.12109,0.60938 -0.38672,0.81249999 -0.85547,0.6523401 -1.707,1.3008001 -2.5625,1.9531001 -1.1172,0.85547 -2.2188,1.6875 -3.3164,2.543 -0.89453,0.67187 -1.7891,1.3633 -2.6875,2.0547 -0.89453,0.69141 -1.7891,1.3633 -2.6641,2.0547 -0.14062,0.10156 -0.24219,0.18359 -0.30469,0.24219 0.0625,0.0625 0.12109,0.1406203 0.24219,0.2656203 l 5.3516,5.3516 c 0.89453,0.89453 1.7891,1.7695 2.6641,2.6641 0.16406,0.16406 0.26562,0.20312 0.34766,0.26562 0.14063,0.08203 0.57031,0.30469 0.62891,0.83594 0.0625,0.55078 -0.28516,0.85547 -0.52734,1.0586 -0.12109,0.10156 -0.28516,0.26562 -0.52734,0.48828 l -0.03906,0.03906 c -2.6055,2.6055 -5.2891,5.2891 -7.8945,7.9336 -0.10156,0.10156 -0.16406,0.16406 -0.20313,0.20312 0.03906,0.03906 0.10156,0.12109 0.18359,0.20312 2.5234,2.5234 5.1289,5.1289 7.6914,7.6719 0.0625,0.0625 0.16406,0.14062 0.28516,0.22266 0.10156,0.08203 0.22266,0.14062 0.32422,0.24219 0.22266,0.16406 0.36719,0.42578 0.38672,0.71094 0.01953,0.28516 -0.08203,0.55078 -0.28516,0.75391 -1.2227,1.2227 -2.3203,2.3008 -3.3789,3.3359 l -5.1484,5.1484 c -0.14062,0.14062 -0.22266,0.24219 -0.28516,0.30469 0.0625,0.0625 0.14062,0.18359 0.30469,0.32422 l 9.7266,9.7266 c 0.01953,0.01953 0.03906,0.03906 0.0625,0.08203 0.03906,0.01953 0.10156,0.0625 0.14062,0.08203 0.10156,0.0625 0.24219,0.14063 0.40625,0.24219 0.26562,0.18359 0.42578,0.46875 0.42578,0.79297 0,0.32422 -0.16406,0.62891 -0.42578,0.79297 -0.46875,0.32422 -0.89453,0.62891 -1.3242,0.91406 -1.1602,0.8125 -2.2773,1.5664 -3.3789,2.3008 -1.0586,0.69141 -2.1758,1.3828 -3.2344,2.0547 -0.67188,0.40625 -1.3242,0.83594 -1.9922,1.2422 -0.30469,0.28516 -0.73047,0.40625 -1.1602,0.40625 z M -1.7662921,6.2359677 c 0,0.08203 -0.01953,0.22266 -0.01953,0.46875 v 6.2070003 c 0,4.0703 -0.01953,8.2617 0,12.391 0.01953,4.5156 0.95702997,8.9727 2.7890999,13.246 2.5234001,5.9609 6.5508001,11.395 12.3479992,16.621 4.0078,3.6211 8.668,6.5312 13.184,9.3398 l 0.28516,0.16406 c 0.08203,0.0625 0.12109,0.08203 0.34766,-0.0625 0.67188,-0.42578 1.3438,-0.83594 1.9922,-1.2617 1.0586,-0.65234 2.1562,-1.3438 3.1953,-2.0352 1.0781,-0.71094 2.1758,-1.4648 3.3359,-2.2578 0.08203,-0.0625 0.16406,-0.10156 0.24219,-0.16406 l -9.5234,-9.5234 c -1.2422,-1.2422 -1.2617,-2.1367 -0.01953,-3.3555 l 5.168,-5.168 c 0.83594,-0.8125 1.668,-1.6289 2.582,-2.543 -2.5625,-2.543 -5.1484,-5.1289 -7.6484,-7.6289 -1.0781,-1.0781 -1.0781,-2.0742 0,-3.1523 2.625,-2.6445 5.3086,-5.332 7.9141,-7.9336 l 0.03906,-0.03906 c -0.875,-0.875 -1.7305,-1.7305 -2.6055,-2.582 l -5.3516,-5.3516 c -0.48828,-0.46875 -0.95703,-1.0391 -0.89453,-1.7500003 0.03906,-0.73438 0.57031,-1.2422 1.1406,-1.668 0.89453,-0.67188 1.7695,-1.3633 2.6641,-2.0547 0.89453,-0.69141 1.7891,-1.3828 2.6875,-2.0547 1.0977,-0.83594 2.2188,-1.6875 3.3164,-2.5234 0.46875,-0.3671901 0.95703,-0.73438009 1.4258,-1.09770009 -0.58984,-0.34765997 -1.1992,-0.71093997 -1.7695,-1.11719997 -2.8906,-2.13669994 -5.7383,-4.35549994 -7.9141,-6.02339994 -0.10156,-0.08203 -0.18359,-0.10156 -0.20312,-0.12109 -0.01953,0 -0.08203,0.03906 -0.18359,0.12109 -0.77344,0.62891 -1.5859,1.2617 -2.3594,1.8711 -0.7735,0.6094 -1.5859,1.2227 -2.3398,1.8516 -4.332,3.51949991 -8.7695,5.8398 -13.5509992,7.0391 -2.2188,0.55078 -4.4961,0.99609 -6.6953,1.4258 -0.97655998,0.18359 -1.99220003,0.38672 -2.9922,0.58984 -0.12109,0.03906 -0.42578,0.10156 -0.58984,0.14062 z M 37.620707,57.911968 Z"
     fill-rule="evenodd"
     id="path21754"
     style="fill:#000000;fill-opacity:1;stroke:#850000;stroke-width:2.5;stroke-dasharray:none;stroke-opacity:1" />
  <path
     d="m 44.358707,58.161968 c -0.24219,0 -0.48828,-0.10156 -0.67187,-0.28516 -1.707,-1.707 -3.418,-3.3984 -5.1055,-5.1055 -1.6875,-1.6875 -3.3984,-3.3984 -5.1055,-5.0859 -0.18359,-0.18359 -0.28516,-0.42578 -0.28516,-0.69141 0,-0.26563 0.10156,-0.50781 0.28516,-0.69141 0.08203,-0.08203 0.14062,-0.14062 0.22266,-0.22266 0.10156,-0.10156 0.18359,-0.20312 0.30469,-0.30469 1.7305,-1.75 3.5195,-3.5195 5.2305,-5.2305 0.875,-0.875 1.75,-1.75 2.625,-2.6055 0.14063,-0.14063 0.22266,-0.22266 0.26563,-0.28516 -0.0625,-0.0625 -0.14063,-0.16406 -0.26563,-0.28516 l -7.6094,-7.6094 c -0.08203,-0.08203 -0.22266,-0.18359 -0.40625,-0.30469 l -0.14063,-0.10156 c -0.24219,-0.16406 -0.38672,-0.40625 -0.42578,-0.69141 -0.03906,-0.28516 0.0625,-0.57031 0.24219,-0.77344 0.30469,-0.34766 0.50781,-0.52734 0.69141,-0.73438 l 0.03906,-0.03906 c 2.6055,-2.6055 5.2891,-5.2891 7.8945,-7.9336 0.14062,-0.14062 0.22266,-0.22266 0.26562,-0.28516 -0.0625,-0.0625 -0.14062,-0.16406 -0.26562,-0.28516 -1.4023,-1.4023 -2.8281,-2.8086 -4.2539,-4.2305 -1.4453,-1.4258 -2.8906,-2.8672 -4.3555,-4.332 -0.18359,-0.1835903 -0.30469,-0.4687503 -0.28516,-0.7343703 0.01953,-0.26563 0.14062,-0.52734 0.34766,-0.69141 0.08203,-0.0625 0.16406,-0.12109 0.22266,-0.18359 0.16406,-0.12109 0.28516,-0.24219 0.42578,-0.34766 3.418,-2.582 6.9375,-5.25 10.438,-7.83200009 0.46875,-0.36718997 1.2812,-0.60937997 1.8906,-0.36718997 0.01953,0 0.01953,0.01953 0.03906,0.01953 3.418,1.52730006 7.1016,2.27730006 10.578,2.89060006 0.79297,0.14062 1.6055,0.30469 2.3789,0.46875 0.57031,0.12109 1.1602,0.22266 1.7305,0.34766 1.1992,0.22266 1.832,0.99609 1.832,2.1992 v 7.5664003 c 0,3.7227 0.01953,7.5898 -0.01953,11.395 -0.0625,7.2617 -2.3398,14.301 -6.7539,20.914 -2.9492,4.4336 -6.6719,8.4414 -11.414,12.289 -0.16406,0.10156 -0.36719,0.18359 -0.58984,0.18359 z m -8.8516,-11.191 c 1.4844,1.4844 2.9492,2.9492 4.4336,4.4141 1.4844,1.4844 2.9922,2.9922 4.4961,4.4766 4.2734,-3.5391 7.6719,-7.2422 10.355,-11.312 4.2734,-6.3672 6.3672,-12.879 6.4297,-19.855 0.03906,-3.7852 0.03906,-7.6289 0.01953,-11.371 0,-2.4805 -0.01953,-5.0469003 0,-7.5898003 0,-0.12109 -0.01953,-0.20312 -0.01953,-0.22266 -0.01953,-0.01953 -0.10156,-0.03906 -0.22266,-0.0625 -0.58984,-0.10156 -1.1797,-0.22266 -1.75,-0.34766 -0.77344,-0.16406 -1.5664,-0.32422 -2.3398,-0.44922 -3.5391,-0.62891 -7.3047,-1.3828 -10.883,-2.9688 -0.03906,0.01953 -0.08203,0.01953 -0.10156,0.03906 0,0 -0.01953,0 -0.01953,0.01953 -3.418,2.5234 -6.875,5.1289 -10.215,7.6719 l 3.582,3.5820003 c 1.4258,1.4258 2.8281,2.8281 4.2539,4.2305 1.1992,1.1992 1.1992,2.1172 0,3.3164 -2.6055,2.625 -5.2695,5.2891 -7.8516,7.875 l 7.5273,7.5273 c 0.42578,0.42578 0.89453,0.95703 0.89453,1.6484 0,0.69141 -0.46875,1.2227 -0.89453,1.6484 -0.875,0.875 -1.75,1.75 -2.625,2.6055 -1.668,1.7305 -3.3789,3.4375 -5.0664,5.125 z"
     fill-rule="evenodd"
     id="path21756"
     style="fill:#000000;fill-opacity:1;stroke:#850000;stroke-width:2.5;stroke-dasharray:none;stroke-opacity:1" />
</svg>
