<?xml version="1.0" encoding="UTF-8" standalone="no"?>
<svg
   xmlns:dc="http://purl.org/dc/elements/1.1/"
   xmlns:cc="http://creativecommons.org/ns#"
   xmlns:rdf="http://www.w3.org/1999/02/22-rdf-syntax-ns#"
   xmlns:svg="http://www.w3.org/2000/svg"
   xmlns="http://www.w3.org/2000/svg"
   xmlns:sodipodi="http://sodipodi.sourceforge.net/DTD/sodipodi-0.dtd"
   xmlns:inkscape="http://www.inkscape.org/namespaces/inkscape"
   width="77.871002mm"
   height="52.292mm"
   viewBox="0 0 77.871002 52.292"
   version="1.1"
   id="svg885"
   inkscape:version="1.0.2 (e86c870879, 2021-01-15)"
   sodipodi:docname="step1.svg">
  <defs
     id="defs879">
    <marker
       style="overflow:visible"
       id="marker1610"
       refX="0"
       refY="0"
       orient="auto"
       inkscape:stockid="Arrow2Mend"
       inkscape:isstock="true"
       viewBox="0 0 6.93045877 5.19622555"
       markerWidth="6.9304585"
       markerHeight="5.1962252"
       preserveAspectRatio="xMidYMid">
      <path
         transform="scale(-0.6)"
         d="M 8.7185878,4.0337352 -2.2072895,0.01601326 8.7185884,-4.0017078 c -1.7454984,2.3720609 -1.7354408,5.6174519 -6e-7,8.035443 z"
         style="fill:#850000;fill-opacity:1;fill-rule:evenodd;stroke:#850000;stroke-width:0.625;stroke-linejoin:round;stroke-opacity:1"
         id="path1608" />
    </marker>
    <marker
       style="overflow:visible"
       id="marker1600"
       refX="0"
       refY="0"
       orient="auto"
       inkscape:stockid="Arrow2Mend"
       inkscape:isstock="true"
       viewBox="0 0 6.93045877 5.19622555"
       markerWidth="6.9304585"
       markerHeight="5.1962252"
       preserveAspectRatio="xMidYMid">
      <path
         transform="scale(-0.6)"
         d="M 8.7185878,4.0337352 -2.2072895,0.01601326 8.7185884,-4.0017078 c -1.7454984,2.3720609 -1.7354408,5.6174519 -6e-7,8.035443 z"
         style="fill:#850000;fill-opacity:1;fill-rule:evenodd;stroke:#850000;stroke-width:0.625;stroke-linejoin:round;stroke-opacity:1"
         id="path1598" />
    </marker>
    <marker
       style="overflow:visible"
       id="marker1590"
       refX="0"
       refY="0"
       orient="auto"
       inkscape:stockid="Arrow2Mend"
       inkscape:isstock="true"
       viewBox="0 0 6.93045877 5.19622555"
       markerWidth="6.9304585"
       markerHeight="5.1962252"
       preserveAspectRatio="xMidYMid">
      <path
         transform="scale(-0.6)"
         d="M 8.7185878,4.0337352 -2.2072895,0.01601326 8.7185884,-4.0017078 c -1.7454984,2.3720609 -1.7354408,5.6174519 -6e-7,8.035443 z"
         style="fill:#850000;fill-opacity:1;fill-rule:evenodd;stroke:#850000;stroke-width:0.625;stroke-linejoin:round;stroke-opacity:1"
         id="path1588" />
    </marker>
    <marker
       style="overflow:visible"
       id="Arrow1Mend"
       refX="0"
       refY="0"
       orient="auto"
       inkscape:stockid="Arrow1Mend"
       inkscape:isstock="true"
       viewBox="0 0 8.88692697 5.07824398"
       markerWidth="8.8869267"
       markerHeight="5.0782442"
       preserveAspectRatio="xMidYMid">
      <path
         transform="matrix(-0.4,0,0,-0.4,-4,0)"
         style="fill:#000000;fill-opacity:1;fill-rule:evenodd;stroke:#000000;stroke-width:1pt;stroke-opacity:1"
         d="M 0,0 5,-5 -12.5,0 5,5 Z"
         id="path3040" />
    </marker>
    <marker
       style="overflow:visible"
       id="Arrow1Send"
       refX="0"
       refY="0"
       orient="auto"
       inkscape:stockid="Arrow1Send"
       inkscape:isstock="true">
      <path
         transform="matrix(-0.2,0,0,-0.2,-1.2,0)"
         style="fill:#000000;fill-opacity:1;fill-rule:evenodd;stroke:#000000;stroke-width:1pt;stroke-opacity:1"
         d="M 0,0 5,-5 -12.5,0 5,5 Z"
         id="path3046" />
    </marker>
    <marker
       style="overflow:visible"
       id="Arrow1Lstart"
       refX="0"
       refY="0"
       orient="auto"
       inkscape:stockid="Arrow1Lstart"
       inkscape:isstock="true">
      <path
         transform="matrix(0.8,0,0,0.8,10,0)"
         style="fill:#000000;fill-opacity:1;fill-rule:evenodd;stroke:#000000;stroke-width:1pt;stroke-opacity:1"
         d="M 0,0 5,-5 -12.5,0 5,5 Z"
         id="path3031" />
    </marker>
    <marker
       style="overflow:visible"
       id="Arrow1Lend"
       refX="0"
       refY="0"
       orient="auto"
       inkscape:stockid="Arrow1Lend"
       inkscape:isstock="true">
      <path
         transform="matrix(-0.8,0,0,-0.8,-10,0)"
         style="fill:#000000;fill-opacity:1;fill-rule:evenodd;stroke:#000000;stroke-width:1pt;stroke-opacity:1"
         d="M 0,0 5,-5 -12.5,0 5,5 Z"
         id="path3034" />
    </marker>
  </defs>
  <sodipodi:namedview
     id="base"
     pagecolor="#ffffff"
     bordercolor="#666666"
     borderopacity="1.0"
     inkscape:pageopacity="0.0"
     inkscape:pageshadow="2"
     inkscape:zoom="2.8"
     inkscape:cx="113.58764"
     inkscape:cy="114.61157"
     inkscape:document-units="mm"
     inkscape:current-layer="layer1"
     inkscape:document-rotation="0"
     showgrid="false"
     inkscape:window-width="1920"
     inkscape:window-height="1016"
     inkscape:window-x="1920"
     inkscape:window-y="27"
     inkscape:window-maximized="1"
     inkscape:showpageshadow="2"
     inkscape:pagecheckerboard="0"
     inkscape:deskcolor="#d1d1d1" />
  <metadata
     id="metadata882">
    <rdf:RDF>
      <cc:Work
         rdf:about="">
        <dc:format>image/svg+xml</dc:format>
        <dc:type
           rdf:resource="http://purl.org/dc/dcmitype/StillImage" />
        <dc:title />
      </cc:Work>
    </rdf:RDF>
  </metadata>
  <g
     inkscape:label="Layer 1"
     inkscape:groupmode="layer"
     id="layer1">
    <rect
       style="fill:none;fill-opacity:0.16;stroke:#850000;stroke-width:0.2;stroke-miterlimit:4;stroke-dasharray:none;stroke-dashoffset:0;stroke-opacity:1"
       id="rect2928-0"
       width="17.300001"
       height="14.8"
       x="7.0621691"
       y="37.376465" />
    <path
       d="m 74.620255,7.8379879 c -0.0143,-0.07009 -0.072,-0.123254 -0.14302,-0.13179 l -1.98768,-0.239452 2.53663,-2.452978 c 0.0604,-0.05835 0.0678,-0.152598 0.0173,-0.219503 -0.0506,-0.06692 -0.14328,-0.0859 -0.21597,-0.04393 l -5.70183,3.29195 c -0.0621,0.03586 -0.0941,0.107151 -0.0798,0.177252 0.0143,0.07009 0.072,0.123256 0.14302,0.131791 l 1.98768,0.239451 -2.53647,2.4530211 c -0.0604,0.05835 -0.0678,0.152597 -0.0173,0.219502 0.0506,0.06692 0.14326,0.0859 0.21596,0.04393 l 5.70182,-3.2919501 c 0.062,-0.03591 0.094,-0.107194 0.0797,-0.177285 z"
       id="path5453-8"
       style="fill:#850000;fill-opacity:1;stroke-width:0.264583" />
    <text
       xml:space="preserve"
       style="font-style:normal;font-weight:normal;font-size:3.175px;line-height:1.25;font-family:sans-serif;letter-spacing:0px;word-spacing:0px;fill:#850000;fill-opacity:1;stroke:none;stroke-width:0.264583"
       x="33.308537"
       y="16.46833"
       id="text2804-2"><tspan
         sodipodi:role="line"
         id="tspan2802-9"
         x="33.308537"
         y="16.46833"
         style="font-style:normal;font-variant:normal;font-weight:bold;font-stretch:normal;font-size:3.175px;font-family:'Noto Sans';-inkscape-font-specification:'Noto Sans Bold';fill:#850000;fill-opacity:1;stroke-width:0.264583">32 GB</tspan></text>
    <circle
       style="fill:none;fill-opacity:1;stroke:#454e51;stroke-width:0.499998;stroke-miterlimit:4;stroke-dasharray:none;stroke-dashoffset:0;stroke-opacity:1"
       id="path6719-9-9"
       cx="75.033379"
       cy="12.839896"
       r="2.587728" />
    <text
       xml:space="preserve"
       style="font-style:normal;font-variant:normal;font-weight:bold;font-stretch:normal;font-size:4.23333px;line-height:1.25;font-family:'Noto Sans';-inkscape-font-specification:'Noto Sans Bold';letter-spacing:0px;word-spacing:0px;fill:#454e51;fill-opacity:1;stroke:none;stroke-width:0.264583"
       id="text6723-6-9"
       y="14.350914"
       x="73.690956"><tspan
         sodipodi:role="line"
         id="tspan6721-0-5"
         x="73.690956"
         y="14.350914"
         style="font-style:normal;font-variant:normal;font-weight:bold;font-stretch:normal;font-size:4.23333px;font-family:'Noto Sans';-inkscape-font-specification:'Noto Sans Bold';fill:#454e51;fill-opacity:1;stroke-width:0.264583">1</tspan></text>
    <text
       xml:space="preserve"
       style="font-style:normal;font-weight:normal;font-size:10.5833px;line-height:1.25;font-family:sans-serif;letter-spacing:0px;word-spacing:0px;fill:#000000;fill-opacity:1;stroke:none;stroke-width:0.264583"
       x="10.040698"
       y="1.0828972"
       id="text6801"><tspan
         sodipodi:role="line"
         id="tspan6799"
         x="10.040698"
         y="1.0828972"
         style="stroke-width:0.264583" /></text>
    <path
       style="font-variation-settings:'wght' 204;fill:#850000;fill-opacity:1;stroke:#850000;stroke-width:0.5;stroke-dasharray:none;stroke-opacity:1"
       d="m 32.915898,11.543842 h 9.48081"
       id="path1" />
    <path
       style="fill:#850000;fill-opacity:1;stroke-width:0.264584"
       d="m 55.701601,8.4572171 -0.06202,-0.06202 v -0.632781 c 0,-0.599097 -0.0027,-0.635474 -0.05053,-0.683314 -0.03369,-0.03369 -0.08421,-0.05053 -0.151593,-0.05053 h -0.101059 v -0.151593 -0.151592 h 0.103004 c 0.220609,0 0.33674,-0.260796 0.184102,-0.413435 -0.05098,-0.05098 -0.09169,-0.06661 -0.173537,-0.06661 h -0.106929 l -0.0046,-0.227388 -0.0046,-0.227389 0.121291,-1.05e-4 c 0.230485,-1.82e-4 0.386281,-0.159046 0.386453,-0.3940999 1.76e-4,-0.224368 -0.168055,-0.389027 -0.397442,-0.389027 h -0.107778 v -0.425738 c 0,-0.468741 0.01943,-0.565876 0.12165,-0.608176 0.04577,-0.01894 0.304783,-0.02588 0.795959,-0.02134 l 0.728119,0.0067 0.0046,1.136944 c 0.0046,1.1287819 0.005,1.1378509 0.06277,1.2632709 0.07298,0.158414 0.165737,0.258364 0.295514,0.318449 0.112526,0.0521 0.344514,0.06912 0.252654,0.01854 -0.103702,-0.05711 -0.22279,-0.189325 -0.280751,-0.311722 l -0.05982,-0.126328 -2.52e-4,-1.4085469 c -2.29e-4,-1.324393 -0.0029,-1.408569 -0.04447,-1.408919 -0.09066,-7.2e-4 -0.659385,-0.207299 -0.905527,-0.328841 -0.397333,-0.196199 -0.56197,-0.382708 -0.449167,-0.508837 0.126223,-0.1411391 0.566255,-0.2309571 1.357371,-0.2770621 l 0.517988,-0.03019 0.01718,-0.128465 c 0.06335,-0.473722 0.267435,-1.140837 0.469162,-1.53355904 0.280362,-0.5458065 0.529823,-0.7261315 0.816403,-0.5901405 0.05156,0.02447 0.20386,0.163028 0.338437,0.307909 0.273559,0.2944955 0.333573,0.3356245 0.489742,0.3356245 0.10544,0 0.117122,-0.0087 0.401825,-0.3006345 0.161273,-0.16535 0.330255,-0.319785 0.375515,-0.343189 0.121851,-0.06301 0.289063,-0.05497 0.401286,0.01929 0.337808,0.223551 0.709285,1.07350654 0.876156,2.00468354 l 0.04131,0.230575 0.332717,0.01737 c 0.712036,0.03716 1.2594,0.114518 1.428287,0.2018521 0.167931,0.08684 0.180534,0.200368 0.03839,0.345926 -0.132995,0.136201 -0.600752,0.365467 -0.999811,0.490047 l -0.32062,0.100093 -0.0078,1.402506 c -0.0077,1.3812849 -0.0087,1.4040369 -0.06237,1.5035689 -0.103168,0.191185 -0.26448,0.301135 -0.493806,0.336567 l -0.133825,0.02068 0.150043,0.0326 c 0.26475,0.05752 0.493415,-0.01111 0.644099,-0.193304 0.148172,-0.179156 0.153312,-0.228666 0.153312,-1.4770289 V 3.9461513 h 0.755144 c 0.705592,0 0.759078,0.0032 0.81481,0.04825 0.05833,0.04719 0.05982,0.05879 0.06746,0.526885 l 0.0078,0.478636 -0.140282,0.01448 c -0.164372,0.01697 -0.269007,0.08245 -0.326998,0.20466 -0.128138,0.270034 0.05211,0.5714669 0.341705,0.5714669 h 0.12259 v 0.227389 0.227389 h -0.07746 c -0.154638,0 -0.248944,0.08756 -0.25019,0.232296 -0.001,0.130618 0.08228,0.221491 0.220309,0.240003 l 0.107338,0.0144 v 0.148268 0.148266 h -0.09715 c -0.178301,0 -0.180773,0.0098 -0.180773,0.717681 v 0.625272 l -0.07385,0.07385 -0.07385,0.07385 h -4.070834 -4.070824 z m 8.060677,-0.487776 c 0.0097,-0.142581 0.0098,-0.327334 1.05e-4,-0.410563 -0.01458,-0.12572 -0.02568,-0.151324 -0.06561,-0.151324 -0.04494,0 -0.04805,0.02293 -0.04805,0.353716 v 0.353716 l -3.79613,2.3e-5 -3.796128,2.4e-5 v -0.347423 c 0,-0.341055 -9.78e-4,-0.347571 -0.05685,-0.355497 l -0.05685,-0.0081 -1e-6,0.412321 v 0.412321 h 3.900915 3.900919 z m -7.251035,-0.283968 v -0.265286 l -0.08212,-0.0079 -0.08212,-0.0079 v 0.262677 c 0,0.144472 0.0081,0.270778 0.018,0.28068 0.0099,0.0099 0.04686,0.01464 0.08212,0.01053 0.06409,-0.0075 0.06411,-0.0076 0.06411,-0.272763 z m 0.360887,-0.0063 0.0072,-0.271603 H 56.80577 56.7322 l -0.01207,0.233705 c -0.0134,0.259458 0.0063,0.329224 0.08971,0.317351 0.05224,-0.0074 0.05552,-0.02211 0.06231,-0.279453 z m 0.37211,0.258485 c 0.01982,-0.03207 0.03617,-0.453889 0.0193,-0.497854 -0.0068,-0.01773 -0.04525,-0.03224 -0.08546,-0.03224 h -0.07309 v 0.261076 c 0,0.143592 0.0076,0.268656 0.01684,0.277919 0.02577,0.02576 0.10453,0.02003 0.122416,-0.0089 z m 0.411118,-0.258485 0.0072,-0.271603 h -0.07395 c -0.09376,0 -0.104619,0.02983 -0.104619,0.287566 0,0.220185 0.02396,0.275743 0.113399,0.262925 0.0468,-0.0067 0.0514,-0.02882 0.058,-0.278888 z m 0.379389,0.253918 c 0.03166,-0.03165 0.04338,-0.411559 0.01499,-0.485556 -0.0091,-0.0237 -0.04509,-0.03997 -0.08843,-0.03997 h -0.0731 v 0.261076 c 0,0.143591 0.0076,0.268655 0.01684,0.277919 0.02681,0.02682 0.09666,0.01956 0.129696,-0.01347 z m 0.378573,-0.253918 0.0072,-0.271603 h -0.07665 -0.07665 v 0.261076 c 0,0.143592 0.0081,0.269135 0.01792,0.278985 0.0099,0.0099 0.04111,0.01459 0.06947,0.01053 0.04774,-0.0068 0.05211,-0.02757 0.05874,-0.278985 z m 0.454777,0 0.0072,-0.271603 h -0.07665 -0.07665 l -0.0029,0.195807 c -0.0016,0.107694 -0.0047,0.212861 -0.007,0.233705 -0.0077,0.07184 0.03688,0.129632 0.09369,0.121544 0.05224,-0.0074 0.05551,-0.02211 0.0623,-0.279453 z m 0.42953,-0.0017 0.0072,-0.273268 -0.08299,0.008 -0.08298,0.008 -0.0073,0.238126 c -0.0088,0.286646 -0.0016,0.310911 0.08929,0.300456 l 0.06963,-0.008 0.0072,-0.273269 z m 0.353716,0 0.0072,-0.273268 -0.08298,0.008 -0.08298,0.008 -0.0073,0.238126 c -0.0088,0.286646 -0.0016,0.310911 0.08929,0.300456 l 0.06963,-0.008 0.0072,-0.273269 z m 0.70743,0 0.0072,-0.273268 -0.08298,0.008 -0.08298,0.008 -0.0073,0.23625 c -0.0078,0.253872 0.01367,0.315071 0.106149,0.301859 0.04925,-0.007 0.05322,-0.02567 0.05993,-0.280805 z m 0.346529,0.008 v -0.265292 l -0.08212,-0.0079 -0.08212,-0.0079 v 0.262663 c 0,0.144473 0.0081,0.270779 0.018,0.280681 0.0099,0.0099 0.04686,0.01464 0.08212,0.01053 0.06409,-0.0075 0.06411,-0.0076 0.06411,-0.272763 z m 0.386516,0.233706 c 0.01208,-0.02432 0.01845,-0.13517 0.01415,-0.246338 -0.0043,-0.111168 -0.0081,-0.216335 -0.0084,-0.233705 -3.63e-4,-0.01811 -0.03296,-0.03158 -0.07642,-0.03158 h -0.07579 v 0.261076 c 0,0.143592 0.0076,0.268656 0.01684,0.277919 0.03241,0.0324 0.107897,0.01646 0.129653,-0.02737 z m 0.404291,0.01389 c 0.03166,-0.03165 0.04338,-0.411559 0.01498,-0.485557 -0.0091,-0.0237 -0.04509,-0.03997 -0.08843,-0.03997 h -0.07311 v 0.261076 c 0,0.143593 0.0076,0.268656 0.01684,0.27792 0.02682,0.02682 0.09666,0.01956 0.129697,-0.01348 z m 0.429104,-0.253918 0.0072,-0.271603 h -0.0737 c -0.08908,0 -0.09688,0.0227 -0.0999,0.291175 -0.0024,0.213388 0.02152,0.27171 0.106522,0.259567 0.04922,-0.007 0.05322,-0.02569 0.05991,-0.279139 z m 0.353716,0 0.0072,-0.271603 h -0.07665 -0.07665 v 0.261075 c 0,0.143593 0.0081,0.269136 0.01791,0.278986 0.0099,0.0099 0.04112,0.01459 0.06948,0.01053 0.04774,-0.0068 0.05211,-0.02757 0.05874,-0.278985 z m 0.404246,0 0.0072,-0.271603 h -0.07479 -0.0748 l -0.0087,0.221072 c -0.01057,0.269062 0.0084,0.341371 0.08713,0.330203 0.05435,-0.0077 0.05711,-0.01981 0.06397,-0.279672 z m 0.353716,0 0.0072,-0.271603 h -0.0737 c -0.08913,0 -0.104026,0.04075 -0.104518,0.285897 -4.02e-4,0.201819 0.03016,0.276346 0.108742,0.265159 0.05224,-0.0074 0.05552,-0.02211 0.06231,-0.279453 z m 0.378998,-0.0017 0.0072,-0.273269 -0.08298,0.008 -0.08299,0.008 -0.0073,0.250567 c -0.0077,0.264304 0.0057,0.299597 0.108344,0.286468 0.04651,-0.0059 0.05111,-0.02824 0.05772,-0.27973 z m -7.384185,-0.446276 c -0.004,-0.05277 -0.0384,-0.104293 -0.0384,-0.05732 0,0.01507 -0.0069,0.04539 -0.01533,0.06738 -0.0096,0.02504 -0.0018,0.03997 0.02103,0.03997 0.02065,0 0.03479,-0.02162 0.03269,-0.05002 z m 7.673733,-0.01315 c -0.0066,-0.03474 -0.01643,-0.06316 -0.02176,-0.06316 -0.0053,0 -0.0097,0.02842 -0.0097,0.06316 0,0.03474 0.0098,0.06316 0.02176,0.06316 0.01196,0 0.01633,-0.02842 0.0097,-0.06316 z m -7.224629,-0.549524 c 0.06688,-0.04984 0.0806,-0.175462 0.0262,-0.239888 -0.07543,-0.08933 -0.171653,-0.09815 -0.247151,-0.02265 -0.07346,0.07346 -0.08222,0.156432 -0.0251,0.237968 0.04461,0.06369 0.17595,0.0768 0.246051,0.02457 z m 6.820636,-0.01263 c 0.126706,-0.14171 -0.02379,-0.368739 -0.187318,-0.282569 -0.03252,0.01714 -0.0675,0.04367 -0.0777,0.05896 -0.03137,0.04697 -0.02139,0.152589 0.01999,0.211669 0.0488,0.06968 0.187363,0.07643 0.245026,0.01194 z m -2.260495,-0.682129 c -0.01169,-0.4329709 -0.04331,-0.5319059 -0.235599,-0.7374829 -0.17989,-0.192317 -0.234866,-0.203698 -0.982522,-0.203407 -0.610214,2.28e-4 -0.638092,0.0024 -0.759962,0.05916 -0.146215,0.06809 -0.272729,0.201563 -0.348341,0.367504 -0.04448,0.09764 -0.05458,0.1780889 -0.06294,0.5015929 l -0.01001,0.385298 h 1.204692 1.204692 z m -2.187602,0.140223 c -0.01668,-0.01668 -0.03031,-0.04109 -0.03031,-0.05424 0,-0.04972 0.184305,-0.246121 0.287989,-0.306884 0.310737,-0.182105 0.940755,-0.217392 1.313554,-0.07357 0.150615,0.05811 0.313278,0.1801 0.385348,0.289004 0.05849,0.08839 0.06116,0.102278 0.02634,0.137102 -0.03482,0.03482 -0.05724,0.02989 -0.221242,-0.04871 -0.27816,-0.133305 -0.502072,-0.174165 -0.86683,-0.15818 -0.32406,0.0142 -0.528063,0.06477 -0.745161,0.184717 -0.129968,0.07181 -0.112271,0.06817 -0.149673,0.03077 z m 0.160902,-1.4481259 c 0.113332,-0.03485 0.290781,-0.149689 0.26257,-0.169924 -0.194167,-0.13926 -0.307945,-0.194709 -0.351594,-0.171349 -0.137119,0.07338 -0.279055,-0.0045 -0.279055,-0.153164 0,-0.05525 -0.03368,-0.08901 -0.195807,-0.196224 l -0.195807,-0.1294919 -0.01489,0.105025 c -0.04293,0.3027019 0.146342,0.6334739 0.409427,0.7155179 0.146372,0.04565 0.215702,0.04557 0.365161,-3.89e-4 z m 2.114689,-0.0428 c 0.123962,-0.06857 0.258784,-0.236589 0.295275,-0.367986 0.02806,-0.101062 0.03598,-0.3666769 0.01164,-0.3910099 -0.0081,-0.0081 -0.09768,0.0383 -0.199041,0.103167 -0.160497,0.1027259 -0.186246,0.1296129 -0.1996,0.2084229 -0.02564,0.151389 -0.146101,0.220323 -0.274737,0.157233 -0.06422,-0.0315 -0.07906,-0.02733 -0.20844,0.05857 -0.07661,0.05087 -0.139291,0.101469 -0.139291,0.112451 0,0.01098 0.03512,0.04498 0.07806,0.07555 0.187386,0.13343 0.442156,0.150891 0.636127,0.0436 z m -4.638273,-0.150679 c 0.03216,-0.03021 0.05848,-0.08189 0.05848,-0.114843 0,-0.07406 -0.105647,-0.183938 -0.176859,-0.183938 -0.06817,0 -0.176857,0.108692 -0.176857,0.176858 0,0.06971 0.109288,0.176858 0.180396,0.176858 0.031,0 0.08269,-0.02472 0.114844,-0.05494 z m 6.804342,0.0044 c 0.104341,-0.104341 0.02977,-0.303185 -0.113694,-0.303185 -0.03475,0 -0.0859,0.02274 -0.113696,0.05053 -0.104341,0.104342 -0.02977,0.303185 0.113696,0.303185 0.03474,0 0.0859,-0.02274 0.113694,-0.05053 z m -2.37495,-0.996834 c 0.145908,-0.02142 0.356243,-0.05727 0.46741,-0.07968 0.208334,-0.04198 0.641228,-0.176679 0.67723,-0.210722 0.01644,-0.01555 -0.02388,-0.349554 -0.04523,-0.374666 -0.0033,-0.0039 -0.107028,0.02673 -0.230552,0.06796 -0.515826,0.172204 -1.145887,0.254866 -1.942635,0.254866 -0.860229,0 -1.604064,-0.110754 -2.149476,-0.320049 -0.02081,-0.008 -0.04124,0.04672 -0.06307,0.168844 -0.03829,0.214236 -0.05371,0.196867 0.267107,0.300728 0.344467,0.111517 0.683696,0.171103 1.364333,0.239647 0.233082,0.02347 1.400879,-0.0097 1.654886,-0.04694 z M 59.587646,0.38437756 c -0.204374,-0.136714 -0.213696,-0.155836 -0.06481,-0.132953 0.161574,0.02483 0.49522,0.02366 0.651889,-0.0023 l 0.126327,-0.02092 -0.159808,0.119554 c -0.123838,0.09264 -0.186391,0.122079 -0.27792,0.130775 -0.105728,0.01004 -0.134633,1.81e-4 -0.275682,-0.09418 z"
       id="path293"
       sodipodi:nodetypes="ccssscccssscccccscssscsssssccsssscssscssssscsssscssscssscssscssscccssscccssccccccscsscccsscccccsscccssssscccsssssscsssscssssssscsssscccssssscccssssccccsscccccccsscccscccsssscccsssssssscsssssscsssscssssscccssssscccsssscssssscccssssssssssssssssssssssssscssscccsssssssssssssssscssssssssssssssssssssssssssssssssssssssscssss" />
    <path
       style="fill:none;stroke:#454e51;stroke-width:0.265;stroke-linecap:butt;stroke-linejoin:miter;stroke-miterlimit:4;stroke-dasharray:0.265, 0.53;stroke-dashoffset:0;stroke-opacity:1"
       d="M 24.362169,37.376464 51.062161,22.376469"
       id="path932" />
    <path
       style="fill:none;stroke:#454e51;stroke-width:0.265;stroke-linecap:butt;stroke-linejoin:miter;stroke-miterlimit:4;stroke-dasharray:0.265, 0.53;stroke-dashoffset:0;stroke-opacity:1"
       d="M 24.362169,52.176464 51.062161,37.176468"
       id="path934" />
  </g>
</svg>
